<mxfile modified="2020-03-03T14:54:18.342Z" host="www.draw.io" agent="Mozilla/5.0 (Macintosh; Intel Mac OS X 10_15_3) AppleWebKit/605.1.15 (KHTML, like Gecko) Version/13.0.5 Safari/605.1.15" etag="QDklliVLFNPOkD7jxy9A" version="12.7.9" type="github">
  <diagram name="Page-1" id="75ae5057-2f1f-a65a-41a6-c58fb5237df7">
    <mxGraphModel dx="1260" dy="1019" grid="1" gridSize="10" guides="1" tooltips="1" connect="1" arrows="1" fold="1" page="1" pageScale="1" pageWidth="1169" pageHeight="827" background="#ffffff" math="0" shadow="0">
      <root>
        <mxCell id="0" />
        <mxCell id="1" parent="0" />
        <mxCell id="VDPa8rt16qKgHQVNXyiY-29" style="edgeStyle=orthogonalEdgeStyle;rounded=0;orthogonalLoop=1;jettySize=auto;html=1;strokeColor=#FF6666;strokeWidth=3;exitX=0.75;exitY=1;exitDx=0;exitDy=0;entryX=0.467;entryY=-0.007;entryDx=0;entryDy=0;entryPerimeter=0;" parent="1" source="9xZ__yJcOjTzKGVj3mQi-7" target="VDPa8rt16qKgHQVNXyiY-7" edge="1">
          <mxGeometry relative="1" as="geometry">
            <Array as="points">
              <mxPoint x="563" y="220" />
              <mxPoint x="760" y="220" />
              <mxPoint x="760" y="390" />
              <mxPoint x="830" y="390" />
              <mxPoint x="830" y="520" />
              <mxPoint x="1085" y="520" />
            </Array>
          </mxGeometry>
        </mxCell>
        <mxCell id="e_Fd-XsdZ4aZpfvhOUSF-18" value="" style="rounded=0;whiteSpace=wrap;html=1;fillColor=none;" parent="1" vertex="1">
          <mxGeometry x="356" y="481" width="120" height="120" as="geometry" />
        </mxCell>
        <mxCell id="e_Fd-XsdZ4aZpfvhOUSF-9" value="" style="group" parent="1" vertex="1" connectable="0">
          <mxGeometry x="680" y="479.5" width="120" height="120" as="geometry" />
        </mxCell>
        <mxCell id="e_Fd-XsdZ4aZpfvhOUSF-13" value="" style="rounded=0;whiteSpace=wrap;html=1;fillColor=none;" parent="e_Fd-XsdZ4aZpfvhOUSF-9" vertex="1">
          <mxGeometry width="120" height="120" as="geometry" />
        </mxCell>
        <mxCell id="e_Fd-XsdZ4aZpfvhOUSF-10" value="&lt;br&gt;DTH" style="shape=mxgraph.rack.oracle.netra_cp3260_atca_blade_server;html=1;labelPosition=center;align=center;spacingLeft=15;dashed=0;shadow=0;fillColor=#ffffff;horizontal=0;verticalLabelPosition=top;verticalAlign=bottom;" parent="e_Fd-XsdZ4aZpfvhOUSF-9" vertex="1">
          <mxGeometry x="40" y="3" width="10" height="113" as="geometry" />
        </mxCell>
        <mxCell id="e_Fd-XsdZ4aZpfvhOUSF-43" style="edgeStyle=orthogonalEdgeStyle;rounded=0;orthogonalLoop=1;jettySize=auto;html=1;startArrow=classic;startFill=1;endArrow=none;endFill=0;strokeColor=#FF6666;strokeWidth=1;entryX=0.369;entryY=1.004;entryDx=0;entryDy=0;entryPerimeter=0;" parent="e_Fd-XsdZ4aZpfvhOUSF-9" target="e_Fd-XsdZ4aZpfvhOUSF-13" edge="1">
          <mxGeometry relative="1" as="geometry">
            <mxPoint x="65" y="120.5" as="sourcePoint" />
            <Array as="points">
              <mxPoint x="65" y="134" />
              <mxPoint x="44" y="134" />
            </Array>
          </mxGeometry>
        </mxCell>
        <mxCell id="e_Fd-XsdZ4aZpfvhOUSF-11" value="LumiBlade&lt;br&gt;" style="shape=mxgraph.rack.oracle.netra_cp3260_atca_blade_server;html=1;labelPosition=center;align=center;spacingLeft=15;dashed=0;shadow=0;fillColor=#ffffff;horizontal=0;verticalLabelPosition=top;verticalAlign=bottom;" parent="e_Fd-XsdZ4aZpfvhOUSF-9" vertex="1">
          <mxGeometry x="60" y="3" width="10" height="113" as="geometry" />
        </mxCell>
        <mxCell id="e_Fd-XsdZ4aZpfvhOUSF-44" style="edgeStyle=orthogonalEdgeStyle;rounded=0;orthogonalLoop=1;jettySize=auto;html=1;entryX=0.367;entryY=1.01;entryDx=0;entryDy=0;entryPerimeter=0;startArrow=classic;startFill=1;endArrow=none;endFill=0;strokeColor=#FF6666;strokeWidth=1;" parent="e_Fd-XsdZ4aZpfvhOUSF-9" edge="1">
          <mxGeometry relative="1" as="geometry">
            <mxPoint x="75" y="119.5" as="sourcePoint" />
            <mxPoint x="44" y="119.25" as="targetPoint" />
            <Array as="points">
              <mxPoint x="75" y="134" />
              <mxPoint x="44" y="134" />
            </Array>
          </mxGeometry>
        </mxCell>
        <mxCell id="e_Fd-XsdZ4aZpfvhOUSF-12" value="LumiBlade&lt;br&gt;" style="shape=mxgraph.rack.oracle.netra_cp3260_atca_blade_server;html=1;labelPosition=center;align=center;spacingLeft=15;dashed=0;shadow=0;fillColor=#ffffff;horizontal=0;verticalLabelPosition=top;verticalAlign=bottom;" parent="e_Fd-XsdZ4aZpfvhOUSF-9" vertex="1">
          <mxGeometry x="70" y="3" width="10" height="113" as="geometry" />
        </mxCell>
        <mxCell id="e_Fd-XsdZ4aZpfvhOUSF-7" value="" style="group" parent="1" vertex="1" connectable="0">
          <mxGeometry x="520" y="480" width="120" height="120" as="geometry" />
        </mxCell>
        <mxCell id="e_Fd-XsdZ4aZpfvhOUSF-5" value="" style="rounded=0;whiteSpace=wrap;html=1;fillColor=none;" parent="e_Fd-XsdZ4aZpfvhOUSF-7" vertex="1">
          <mxGeometry width="120" height="120" as="geometry" />
        </mxCell>
        <mxCell id="e_Fd-XsdZ4aZpfvhOUSF-1" value="TEPX DTH" style="shape=mxgraph.rack.oracle.netra_cp3260_atca_blade_server;html=1;labelPosition=center;align=center;spacingLeft=15;dashed=0;shadow=0;fillColor=#ffffff;horizontal=0;verticalLabelPosition=top;verticalAlign=bottom;" parent="e_Fd-XsdZ4aZpfvhOUSF-7" vertex="1">
          <mxGeometry x="40" y="3" width="10" height="113" as="geometry" />
        </mxCell>
        <mxCell id="e_Fd-XsdZ4aZpfvhOUSF-41" style="edgeStyle=orthogonalEdgeStyle;rounded=0;orthogonalLoop=1;jettySize=auto;html=1;entryX=0.381;entryY=1.003;entryDx=0;entryDy=0;entryPerimeter=0;startArrow=classic;startFill=1;endArrow=none;endFill=0;strokeColor=#FF6666;strokeWidth=1;" parent="e_Fd-XsdZ4aZpfvhOUSF-7" target="e_Fd-XsdZ4aZpfvhOUSF-5" edge="1">
          <mxGeometry relative="1" as="geometry">
            <mxPoint x="65" y="120" as="sourcePoint" />
            <Array as="points">
              <mxPoint x="65" y="133" />
              <mxPoint x="46" y="133" />
            </Array>
          </mxGeometry>
        </mxCell>
        <mxCell id="e_Fd-XsdZ4aZpfvhOUSF-2" value="IT DTC" style="shape=mxgraph.rack.oracle.netra_cp3260_atca_blade_server;html=1;labelPosition=center;align=center;spacingLeft=15;dashed=0;shadow=0;fillColor=#ffffff;horizontal=0;verticalLabelPosition=top;verticalAlign=bottom;" parent="e_Fd-XsdZ4aZpfvhOUSF-7" vertex="1">
          <mxGeometry x="60" y="3" width="10" height="113" as="geometry" />
        </mxCell>
        <mxCell id="e_Fd-XsdZ4aZpfvhOUSF-42" style="edgeStyle=orthogonalEdgeStyle;rounded=0;orthogonalLoop=1;jettySize=auto;html=1;entryX=0.383;entryY=1;entryDx=0;entryDy=0;entryPerimeter=0;startArrow=classic;startFill=1;endArrow=none;endFill=0;strokeColor=#FF6666;strokeWidth=1;" parent="e_Fd-XsdZ4aZpfvhOUSF-7" target="e_Fd-XsdZ4aZpfvhOUSF-5" edge="1">
          <mxGeometry relative="1" as="geometry">
            <mxPoint x="76" y="120" as="sourcePoint" />
            <Array as="points">
              <mxPoint x="76" y="133" />
              <mxPoint x="46" y="133" />
            </Array>
          </mxGeometry>
        </mxCell>
        <mxCell id="e_Fd-XsdZ4aZpfvhOUSF-3" value="IT DTC" style="shape=mxgraph.rack.oracle.netra_cp3260_atca_blade_server;html=1;labelPosition=center;align=center;spacingLeft=15;dashed=0;shadow=0;fillColor=#ffffff;horizontal=0;verticalLabelPosition=top;verticalAlign=bottom;" parent="e_Fd-XsdZ4aZpfvhOUSF-7" vertex="1">
          <mxGeometry x="70" y="3" width="10" height="113" as="geometry" />
        </mxCell>
        <mxCell id="e_Fd-XsdZ4aZpfvhOUSF-22" value="LHC bunch &amp;amp; orbit CLK" style="edgeStyle=orthogonalEdgeStyle;rounded=0;orthogonalLoop=1;jettySize=auto;html=1;entryX=0;entryY=0.5;entryDx=0;entryDy=0;entryPerimeter=0;strokeWidth=2;strokeColor=#FFCC99;labelPosition=center;verticalLabelPosition=top;align=center;verticalAlign=bottom;" parent="1" source="9xZ__yJcOjTzKGVj3mQi-6" target="9xZ__yJcOjTzKGVj3mQi-7" edge="1">
          <mxGeometry relative="1" as="geometry">
            <Array as="points">
              <mxPoint x="362" y="155" />
            </Array>
          </mxGeometry>
        </mxCell>
        <mxCell id="e_Fd-XsdZ4aZpfvhOUSF-29" style="edgeStyle=orthogonalEdgeStyle;rounded=0;orthogonalLoop=1;jettySize=auto;html=1;entryX=0;entryY=0.25;entryDx=0;entryDy=0;startArrow=none;startFill=0;endArrow=classic;endFill=1;strokeWidth=2;strokeColor=#FFCC99;" parent="1" source="9xZ__yJcOjTzKGVj3mQi-6" edge="1">
          <mxGeometry relative="1" as="geometry">
            <Array as="points">
              <mxPoint x="190" y="320" />
              <mxPoint x="110" y="320" />
              <mxPoint x="110" y="455" />
            </Array>
            <mxPoint x="130" y="455" as="targetPoint" />
          </mxGeometry>
        </mxCell>
        <mxCell id="9xZ__yJcOjTzKGVj3mQi-6" value="Machine Interface Crate" style="rounded=0;whiteSpace=wrap;html=1;shadow=0;dashed=0;fontFamily=Helvetica;fontSize=12;fontColor=#000000;align=center;strokeColor=#000000;fillColor=#ffffff;" parent="1" vertex="1">
          <mxGeometry x="135" y="100" width="110" height="110" as="geometry" />
        </mxCell>
        <mxCell id="VDPa8rt16qKgHQVNXyiY-59" style="edgeStyle=orthogonalEdgeStyle;rounded=0;orthogonalLoop=1;jettySize=auto;html=1;exitX=0.75;exitY=1;exitDx=0;exitDy=0;entryX=0.142;entryY=0.008;entryDx=0;entryDy=0;entryPerimeter=0;strokeColor=#FF6666;strokeWidth=3;" parent="1" source="9xZ__yJcOjTzKGVj3mQi-7" target="VDPa8rt16qKgHQVNXyiY-41" edge="1">
          <mxGeometry relative="1" as="geometry">
            <Array as="points">
              <mxPoint x="563" y="220" />
              <mxPoint x="1257" y="220" />
            </Array>
          </mxGeometry>
        </mxCell>
        <mxCell id="VDPa8rt16qKgHQVNXyiY-85" style="edgeStyle=orthogonalEdgeStyle;rounded=0;orthogonalLoop=1;jettySize=auto;html=1;entryX=0.133;entryY=0.004;entryDx=0;entryDy=0;entryPerimeter=0;strokeColor=#FF6666;strokeWidth=3;" parent="1" source="9xZ__yJcOjTzKGVj3mQi-7" target="VDPa8rt16qKgHQVNXyiY-66" edge="1">
          <mxGeometry relative="1" as="geometry">
            <Array as="points">
              <mxPoint x="560" y="220" />
              <mxPoint x="1160" y="220" />
              <mxPoint x="1160" y="137" />
              <mxPoint x="1430" y="137" />
            </Array>
          </mxGeometry>
        </mxCell>
        <mxCell id="9xZ__yJcOjTzKGVj3mQi-7" value="TCDS Master (super DTH)" style="rounded=0;whiteSpace=wrap;html=1;shadow=0;dashed=0;fontFamily=Helvetica;fontSize=12;fontColor=#000000;align=center;strokeColor=#6c8ebf;fillColor=none;labelPosition=center;verticalLabelPosition=top;verticalAlign=bottom;" parent="1" vertex="1">
          <mxGeometry x="480" y="94" width="110" height="120" as="geometry" />
        </mxCell>
        <mxCell id="e_Fd-XsdZ4aZpfvhOUSF-24" style="edgeStyle=orthogonalEdgeStyle;rounded=0;orthogonalLoop=1;jettySize=auto;html=1;entryX=0.973;entryY=0.518;entryDx=0;entryDy=0;entryPerimeter=0;startArrow=classic;startFill=1;strokeWidth=2;strokeColor=#FFD966;" parent="1" source="9xZ__yJcOjTzKGVj3mQi-8" target="9xZ__yJcOjTzKGVj3mQi-7" edge="1">
          <mxGeometry relative="1" as="geometry">
            <Array as="points">
              <mxPoint x="760" y="156" />
              <mxPoint x="760" y="156" />
            </Array>
          </mxGeometry>
        </mxCell>
        <mxCell id="oAu8i6F82wXrjzI7C6l--5" value="L1 TRG" style="text;html=1;resizable=0;points=[];align=center;verticalAlign=bottom;labelBackgroundColor=#ffffff;labelPosition=center;verticalLabelPosition=top;" parent="e_Fd-XsdZ4aZpfvhOUSF-24" vertex="1" connectable="0">
          <mxGeometry x="0.0301" y="1" relative="1" as="geometry">
            <mxPoint x="4" y="-4.5" as="offset" />
          </mxGeometry>
        </mxCell>
        <mxCell id="9xZ__yJcOjTzKGVj3mQi-8" value="GT processor" style="shape=mxgraph.rack.oracle.netra_cp3260_atca_blade_server;html=1;labelPosition=right;align=left;spacingLeft=15;dashed=0;shadow=0;fillColor=#ffffff;" parent="1" vertex="1">
          <mxGeometry x="811" y="100" width="10" height="113" as="geometry" />
        </mxCell>
        <mxCell id="e_Fd-XsdZ4aZpfvhOUSF-25" value="Lumi TRG&amp;nbsp;" style="edgeStyle=orthogonalEdgeStyle;rounded=0;orthogonalLoop=1;jettySize=auto;html=1;exitX=1;exitY=0.25;exitDx=0;exitDy=0;entryX=0;entryY=0.618;entryDx=0;entryDy=0;entryPerimeter=0;startArrow=none;startFill=0;strokeWidth=2;strokeColor=#FF0080;horizontal=0;labelPosition=center;verticalLabelPosition=top;align=center;verticalAlign=bottom;" parent="1" source="9xZ__yJcOjTzKGVj3mQi-9" target="9xZ__yJcOjTzKGVj3mQi-7" edge="1">
          <mxGeometry x="-0.0237" y="5" relative="1" as="geometry">
            <Array as="points">
              <mxPoint x="365" y="445" />
              <mxPoint x="365" y="168" />
            </Array>
            <mxPoint as="offset" />
          </mxGeometry>
        </mxCell>
        <mxCell id="9xZ__yJcOjTzKGVj3mQi-9" value="&quot;GT-like&quot; &amp;nbsp;lumi Trigger card&amp;nbsp;" style="rounded=1;whiteSpace=wrap;html=1;fillColor=none;" parent="1" vertex="1">
          <mxGeometry x="130" y="420" width="120" height="100" as="geometry" />
        </mxCell>
        <mxCell id="e_Fd-XsdZ4aZpfvhOUSF-26" style="edgeStyle=orthogonalEdgeStyle;rounded=0;orthogonalLoop=1;jettySize=auto;html=1;entryX=1.008;entryY=0.73;entryDx=0;entryDy=0;startArrow=classic;startFill=1;endArrow=none;endFill=0;strokeWidth=2;strokeColor=#4D9900;entryPerimeter=0;" parent="1" source="e_Fd-XsdZ4aZpfvhOUSF-15" edge="1" target="9xZ__yJcOjTzKGVj3mQi-9">
          <mxGeometry relative="1" as="geometry">
            <mxPoint x="250" y="470" as="targetPoint" />
            <Array as="points">
              <mxPoint x="280" y="541" />
              <mxPoint x="280" y="493" />
            </Array>
          </mxGeometry>
        </mxCell>
        <mxCell id="oAu8i6F82wXrjzI7C6l--7" value="D4R1 Lumi &amp;amp; BKG TRG" style="text;html=1;resizable=0;points=[];align=center;verticalAlign=middle;labelBackgroundColor=#ffffff;horizontal=1;" parent="e_Fd-XsdZ4aZpfvhOUSF-26" vertex="1" connectable="0">
          <mxGeometry x="0.3757" y="1" relative="1" as="geometry">
            <mxPoint x="4" y="78.5" as="offset" />
          </mxGeometry>
        </mxCell>
        <mxCell id="e_Fd-XsdZ4aZpfvhOUSF-28" style="edgeStyle=orthogonalEdgeStyle;rounded=0;orthogonalLoop=1;jettySize=auto;html=1;entryX=-0.009;entryY=0.755;entryDx=0;entryDy=0;entryPerimeter=0;startArrow=classic;startFill=1;endArrow=none;endFill=0;strokeColor=#FF6666;strokeWidth=3;exitX=1;exitY=0.5;exitDx=0;exitDy=0;" parent="1" target="9xZ__yJcOjTzKGVj3mQi-7" edge="1" source="9xZ__yJcOjTzKGVj3mQi-9">
          <mxGeometry relative="1" as="geometry">
            <Array as="points">
              <mxPoint x="412" y="470" />
              <mxPoint x="412" y="185" />
            </Array>
            <mxPoint x="250" y="455" as="sourcePoint" />
          </mxGeometry>
        </mxCell>
        <mxCell id="oAu8i6F82wXrjzI7C6l--13" value="TCDS 2 for NB, LS" style="text;html=1;resizable=0;points=[];align=center;verticalAlign=middle;labelBackgroundColor=#ffffff;horizontal=0;" parent="e_Fd-XsdZ4aZpfvhOUSF-28" vertex="1" connectable="0">
          <mxGeometry x="-0.0165" y="1" relative="1" as="geometry">
            <mxPoint x="14.5" y="-2.5" as="offset" />
          </mxGeometry>
        </mxCell>
        <mxCell id="oAu8i6F82wXrjzI7C6l--4" style="edgeStyle=orthogonalEdgeStyle;rounded=0;orthogonalLoop=1;jettySize=auto;html=1;entryX=0;entryY=0.5;entryDx=0;entryDy=0;strokeColor=#808080;strokeWidth=2;" parent="1" source="e_Fd-XsdZ4aZpfvhOUSF-15" target="oAu8i6F82wXrjzI7C6l--3" edge="1">
          <mxGeometry relative="1" as="geometry">
            <Array as="points">
              <mxPoint x="410" y="540" />
              <mxPoint x="410" y="746" />
            </Array>
          </mxGeometry>
        </mxCell>
        <mxCell id="oAu8i6F82wXrjzI7C6l--12" value="D4R1 Calibration Data" style="text;html=1;resizable=0;points=[];align=center;verticalAlign=middle;labelBackgroundColor=#ffffff;" parent="oAu8i6F82wXrjzI7C6l--4" vertex="1" connectable="0">
          <mxGeometry x="0.2469" relative="1" as="geometry">
            <mxPoint x="-10" y="52" as="offset" />
          </mxGeometry>
        </mxCell>
        <mxCell id="e_Fd-XsdZ4aZpfvhOUSF-15" value="D4R1 DTH" style="shape=mxgraph.rack.oracle.netra_cp3260_atca_blade_server;html=1;labelPosition=center;align=center;spacingLeft=15;dashed=0;shadow=0;fillColor=#ffffff;horizontal=0;verticalLabelPosition=top;verticalAlign=bottom;" parent="1" vertex="1">
          <mxGeometry x="380" y="483.5" width="10" height="113" as="geometry" />
        </mxCell>
        <mxCell id="e_Fd-XsdZ4aZpfvhOUSF-39" style="edgeStyle=orthogonalEdgeStyle;rounded=0;orthogonalLoop=1;jettySize=auto;html=1;entryX=0.25;entryY=1;entryDx=0;entryDy=0;startArrow=classic;startFill=1;endArrow=none;endFill=0;strokeColor=#FF33FF;strokeWidth=1;exitX=0.5;exitY=0.991;exitDx=0;exitDy=0;exitPerimeter=0;" parent="1" source="e_Fd-XsdZ4aZpfvhOUSF-16" target="e_Fd-XsdZ4aZpfvhOUSF-18" edge="1">
          <mxGeometry relative="1" as="geometry">
            <Array as="points">
              <mxPoint x="405" y="611" />
              <mxPoint x="386" y="611" />
            </Array>
          </mxGeometry>
        </mxCell>
        <mxCell id="e_Fd-XsdZ4aZpfvhOUSF-59" style="edgeStyle=orthogonalEdgeStyle;rounded=0;orthogonalLoop=1;jettySize=auto;html=1;startArrow=none;startFill=0;endArrow=classic;endFill=1;strokeColor=#FF99FF;strokeWidth=2;" parent="1" source="e_Fd-XsdZ4aZpfvhOUSF-16" target="e_Fd-XsdZ4aZpfvhOUSF-17" edge="1">
          <mxGeometry relative="1" as="geometry" />
        </mxCell>
        <mxCell id="e_Fd-XsdZ4aZpfvhOUSF-16" value="D4R1 DTC" style="shape=mxgraph.rack.oracle.netra_cp3260_atca_blade_server;html=1;labelPosition=center;align=center;spacingLeft=15;dashed=0;shadow=0;fillColor=#ffffff;horizontal=0;verticalLabelPosition=top;verticalAlign=bottom;" parent="1" vertex="1">
          <mxGeometry x="400" y="484" width="10" height="113" as="geometry" />
        </mxCell>
        <mxCell id="e_Fd-XsdZ4aZpfvhOUSF-40" style="edgeStyle=orthogonalEdgeStyle;rounded=0;orthogonalLoop=1;jettySize=auto;html=1;startArrow=classic;startFill=1;endArrow=none;endFill=0;strokeColor=#FF33FF;strokeWidth=1;" parent="1" edge="1">
          <mxGeometry relative="1" as="geometry">
            <mxPoint x="396" y="611" as="targetPoint" />
            <Array as="points">
              <mxPoint x="430" y="611" />
            </Array>
            <mxPoint x="430" y="597" as="sourcePoint" />
          </mxGeometry>
        </mxCell>
        <mxCell id="oAu8i6F82wXrjzI7C6l--2" style="edgeStyle=orthogonalEdgeStyle;rounded=0;orthogonalLoop=1;jettySize=auto;html=1;entryX=0.5;entryY=1;entryDx=0;entryDy=0;strokeColor=#000099;strokeWidth=2;exitX=0.533;exitY=1;exitDx=0;exitDy=0;exitPerimeter=0;" parent="1" source="e_Fd-XsdZ4aZpfvhOUSF-17" target="e_Fd-XsdZ4aZpfvhOUSF-62" edge="1">
          <mxGeometry relative="1" as="geometry">
            <Array as="points">
              <mxPoint x="430" y="600" />
              <mxPoint x="460" y="600" />
              <mxPoint x="460" y="690" />
              <mxPoint x="1040" y="690" />
            </Array>
          </mxGeometry>
        </mxCell>
        <mxCell id="oAu8i6F82wXrjzI7C6l--10" value="D4R1 Lumi &amp;amp; BKG Histograms" style="text;html=1;resizable=0;points=[];align=center;verticalAlign=middle;labelBackgroundColor=#ffffff;rotation=-90;" parent="oAu8i6F82wXrjzI7C6l--2" vertex="1" connectable="0">
          <mxGeometry x="-0.552" y="2" relative="1" as="geometry">
            <mxPoint x="419.5" y="-258" as="offset" />
          </mxGeometry>
        </mxCell>
        <mxCell id="e_Fd-XsdZ4aZpfvhOUSF-17" value="D4R1 LumiBlade" style="shape=mxgraph.rack.oracle.netra_cp3260_atca_blade_server;html=1;labelPosition=center;align=center;spacingLeft=15;dashed=0;shadow=0;fillColor=#ffffff;horizontal=0;verticalLabelPosition=top;verticalAlign=bottom;" parent="1" vertex="1">
          <mxGeometry x="425" y="484" width="10" height="113" as="geometry" />
        </mxCell>
        <mxCell id="e_Fd-XsdZ4aZpfvhOUSF-36" value="TCDS 2 incl. Lumi TRG" style="edgeStyle=orthogonalEdgeStyle;rounded=0;orthogonalLoop=1;jettySize=auto;html=1;startArrow=classic;startFill=1;endArrow=none;endFill=0;strokeColor=#FF6666;strokeWidth=3;exitX=0.358;exitY=0.017;exitDx=0;exitDy=0;exitPerimeter=0;horizontal=0;" parent="1" source="e_Fd-XsdZ4aZpfvhOUSF-5" edge="1">
          <mxGeometry x="0.3696" y="-10" relative="1" as="geometry">
            <mxPoint x="748" y="478" as="sourcePoint" />
            <mxPoint x="591" y="190" as="targetPoint" />
            <Array as="points">
              <mxPoint x="563" y="430" />
              <mxPoint x="620" y="430" />
              <mxPoint x="620" y="190" />
            </Array>
            <mxPoint as="offset" />
          </mxGeometry>
        </mxCell>
        <mxCell id="e_Fd-XsdZ4aZpfvhOUSF-37" style="edgeStyle=orthogonalEdgeStyle;rounded=0;orthogonalLoop=1;jettySize=auto;html=1;entryX=1;entryY=0.618;entryDx=0;entryDy=0;entryPerimeter=0;startArrow=classic;startFill=1;endArrow=none;endFill=0;strokeColor=#FF6666;strokeWidth=3;exitX=0.6;exitY=-0.004;exitDx=0;exitDy=0;exitPerimeter=0;" parent="1" source="e_Fd-XsdZ4aZpfvhOUSF-10" target="9xZ__yJcOjTzKGVj3mQi-7" edge="1">
          <mxGeometry relative="1" as="geometry">
            <Array as="points">
              <mxPoint x="726" y="410" />
              <mxPoint x="690" y="410" />
              <mxPoint x="690" y="168" />
            </Array>
          </mxGeometry>
        </mxCell>
        <mxCell id="VDPa8rt16qKgHQVNXyiY-38" value="&lt;font style=&quot;font-size: 11px&quot;&gt;TCDS 2 incl. Lumi TRG&lt;/font&gt;" style="text;html=1;resizable=0;points=[];align=center;verticalAlign=middle;labelBackgroundColor=#ffffff;rotation=270;" parent="e_Fd-XsdZ4aZpfvhOUSF-37" vertex="1" connectable="0">
          <mxGeometry x="0.04" y="2" relative="1" as="geometry">
            <mxPoint x="12" y="-4" as="offset" />
          </mxGeometry>
        </mxCell>
        <mxCell id="e_Fd-XsdZ4aZpfvhOUSF-45" value="super DTH" style="shape=mxgraph.rack.oracle.netra_cp3260_atca_blade_server;html=1;labelPosition=center;align=center;spacingLeft=15;dashed=0;shadow=0;fillColor=#ffffff;verticalLabelPosition=top;verticalAlign=bottom;horizontal=0;" parent="1" vertex="1">
          <mxGeometry x="490" y="97" width="10" height="113" as="geometry" />
        </mxCell>
        <mxCell id="e_Fd-XsdZ4aZpfvhOUSF-46" value="super DTH" style="shape=mxgraph.rack.oracle.netra_cp3260_atca_blade_server;html=1;labelPosition=center;align=center;spacingLeft=15;dashed=0;shadow=0;fillColor=#ffffff;verticalLabelPosition=top;verticalAlign=bottom;horizontal=0;" parent="1" vertex="1">
          <mxGeometry x="500" y="97" width="10" height="113" as="geometry" />
        </mxCell>
        <mxCell id="e_Fd-XsdZ4aZpfvhOUSF-47" value="super DTH" style="shape=mxgraph.rack.oracle.netra_cp3260_atca_blade_server;html=1;labelPosition=center;align=center;spacingLeft=15;dashed=0;shadow=0;fillColor=#ffffff;verticalLabelPosition=top;verticalAlign=bottom;horizontal=0;" parent="1" vertex="1">
          <mxGeometry x="510" y="97" width="10" height="113" as="geometry" />
        </mxCell>
        <mxCell id="e_Fd-XsdZ4aZpfvhOUSF-48" value="super DTH" style="shape=mxgraph.rack.oracle.netra_cp3260_atca_blade_server;html=1;labelPosition=center;align=center;spacingLeft=15;dashed=0;shadow=0;fillColor=#ffffff;verticalLabelPosition=top;verticalAlign=bottom;horizontal=0;" parent="1" vertex="1">
          <mxGeometry x="520" y="97" width="10" height="113" as="geometry" />
        </mxCell>
        <mxCell id="e_Fd-XsdZ4aZpfvhOUSF-49" value="super DTH" style="shape=mxgraph.rack.oracle.netra_cp3260_atca_blade_server;html=1;labelPosition=center;align=center;spacingLeft=15;dashed=0;shadow=0;fillColor=#ffffff;verticalLabelPosition=top;verticalAlign=bottom;horizontal=0;" parent="1" vertex="1">
          <mxGeometry x="530" y="97" width="10" height="113" as="geometry" />
        </mxCell>
        <mxCell id="e_Fd-XsdZ4aZpfvhOUSF-50" value="super DTH" style="shape=mxgraph.rack.oracle.netra_cp3260_atca_blade_server;html=1;labelPosition=center;align=center;spacingLeft=15;dashed=0;shadow=0;fillColor=#ffffff;verticalLabelPosition=top;verticalAlign=bottom;horizontal=0;" parent="1" vertex="1">
          <mxGeometry x="540" y="97" width="10" height="113" as="geometry" />
        </mxCell>
        <mxCell id="e_Fd-XsdZ4aZpfvhOUSF-51" value="super DTH" style="shape=mxgraph.rack.oracle.netra_cp3260_atca_blade_server;html=1;labelPosition=center;align=center;spacingLeft=15;dashed=0;shadow=0;fillColor=#ffffff;verticalLabelPosition=top;verticalAlign=bottom;horizontal=0;" parent="1" vertex="1">
          <mxGeometry x="550" y="97" width="10" height="113" as="geometry" />
        </mxCell>
        <mxCell id="e_Fd-XsdZ4aZpfvhOUSF-52" value="super DTH" style="shape=mxgraph.rack.oracle.netra_cp3260_atca_blade_server;html=1;labelPosition=center;align=center;spacingLeft=15;dashed=0;shadow=0;fillColor=#ffffff;verticalLabelPosition=top;verticalAlign=bottom;horizontal=0;" parent="1" vertex="1">
          <mxGeometry x="560" y="97" width="10" height="113" as="geometry" />
        </mxCell>
        <mxCell id="e_Fd-XsdZ4aZpfvhOUSF-53" value="super DTH" style="shape=mxgraph.rack.oracle.netra_cp3260_atca_blade_server;html=1;labelPosition=center;align=center;spacingLeft=15;dashed=0;shadow=0;fillColor=#ffffff;verticalLabelPosition=top;verticalAlign=bottom;horizontal=0;" parent="1" vertex="1">
          <mxGeometry x="570" y="97" width="10" height="113" as="geometry" />
        </mxCell>
        <mxCell id="e_Fd-XsdZ4aZpfvhOUSF-55" style="edgeStyle=orthogonalEdgeStyle;rounded=0;orthogonalLoop=1;jettySize=auto;html=1;exitX=0.5;exitY=1;exitDx=0;exitDy=0;entryX=0;entryY=0.75;entryDx=0;entryDy=0;startArrow=none;startFill=0;endArrow=classic;endFill=1;strokeColor=#66B2FF;strokeWidth=2;" parent="1" source="e_Fd-XsdZ4aZpfvhOUSF-54" edge="1">
          <mxGeometry relative="1" as="geometry">
            <Array as="points">
              <mxPoint x="60" y="485" />
            </Array>
            <mxPoint x="130" y="485" as="targetPoint" />
          </mxGeometry>
        </mxCell>
        <mxCell id="VDPa8rt16qKgHQVNXyiY-3" style="edgeStyle=orthogonalEdgeStyle;rounded=0;orthogonalLoop=1;jettySize=auto;html=1;entryX=0.6;entryY=-0.035;entryDx=0;entryDy=0;entryPerimeter=0;strokeWidth=2;strokeColor=#3399FF;" parent="1" source="e_Fd-XsdZ4aZpfvhOUSF-54" target="9xZ__yJcOjTzKGVj3mQi-8" edge="1">
          <mxGeometry relative="1" as="geometry" />
        </mxCell>
        <mxCell id="e_Fd-XsdZ4aZpfvhOUSF-54" value="BPTX" style="rounded=1;whiteSpace=wrap;html=1;fillColor=none;" parent="1" vertex="1">
          <mxGeometry y="24" width="120" height="60" as="geometry" />
        </mxCell>
        <mxCell id="e_Fd-XsdZ4aZpfvhOUSF-57" style="edgeStyle=orthogonalEdgeStyle;rounded=0;orthogonalLoop=1;jettySize=auto;html=1;startArrow=none;startFill=0;endArrow=classic;endFill=1;strokeColor=#FF99FF;strokeWidth=2;entryX=0.558;entryY=0.004;entryDx=0;entryDy=0;entryPerimeter=0;" parent="1" source="e_Fd-XsdZ4aZpfvhOUSF-3" target="e_Fd-XsdZ4aZpfvhOUSF-13" edge="1">
          <mxGeometry relative="1" as="geometry">
            <Array as="points">
              <mxPoint x="660" y="537" />
              <mxPoint x="660" y="460" />
              <mxPoint x="747" y="460" />
            </Array>
          </mxGeometry>
        </mxCell>
        <mxCell id="e_Fd-XsdZ4aZpfvhOUSF-58" style="edgeStyle=orthogonalEdgeStyle;rounded=0;orthogonalLoop=1;jettySize=auto;html=1;entryX=0.642;entryY=0.004;entryDx=0;entryDy=0;entryPerimeter=0;startArrow=none;startFill=0;endArrow=classic;endFill=1;strokeColor=#FF99FF;strokeWidth=2;" parent="1" source="e_Fd-XsdZ4aZpfvhOUSF-2" target="e_Fd-XsdZ4aZpfvhOUSF-13" edge="1">
          <mxGeometry relative="1" as="geometry">
            <Array as="points">
              <mxPoint x="660" y="537" />
              <mxPoint x="660" y="460" />
              <mxPoint x="757" y="460" />
            </Array>
          </mxGeometry>
        </mxCell>
        <mxCell id="oAu8i6F82wXrjzI7C6l--11" value="TEPX Raw Lumi Data" style="text;html=1;resizable=0;points=[];align=center;verticalAlign=middle;labelBackgroundColor=#ffffff;direction=west;" parent="e_Fd-XsdZ4aZpfvhOUSF-58" vertex="1" connectable="0">
          <mxGeometry x="0.1906" y="1" relative="1" as="geometry">
            <mxPoint x="-10" y="-16" as="offset" />
          </mxGeometry>
        </mxCell>
        <mxCell id="e_Fd-XsdZ4aZpfvhOUSF-60" value="DAQ" style="ellipse;whiteSpace=wrap;html=1;fillColor=none;" parent="1" vertex="1">
          <mxGeometry x="832.5" y="260" width="120" height="80" as="geometry" />
        </mxCell>
        <mxCell id="e_Fd-XsdZ4aZpfvhOUSF-61" style="edgeStyle=orthogonalEdgeStyle;rounded=0;orthogonalLoop=1;jettySize=auto;html=1;entryX=0;entryY=0.5;entryDx=0;entryDy=0;startArrow=none;startFill=0;endArrow=classic;endFill=1;strokeColor=#808080;strokeWidth=2;exitX=0.967;exitY=0.138;exitDx=0;exitDy=0;exitPerimeter=0;" parent="1" source="e_Fd-XsdZ4aZpfvhOUSF-1" target="e_Fd-XsdZ4aZpfvhOUSF-60" edge="1">
          <mxGeometry relative="1" as="geometry">
            <Array as="points">
              <mxPoint x="570" y="370" />
              <mxPoint x="800" y="370" />
              <mxPoint x="800" y="300" />
            </Array>
          </mxGeometry>
        </mxCell>
        <mxCell id="oAu8i6F82wXrjzI7C6l--8" value="TEPX L1 data" style="text;html=1;resizable=0;points=[];align=center;verticalAlign=middle;labelBackgroundColor=#ffffff;" parent="e_Fd-XsdZ4aZpfvhOUSF-61" vertex="1" connectable="0">
          <mxGeometry x="0.0798" relative="1" as="geometry">
            <mxPoint x="1" y="-10" as="offset" />
          </mxGeometry>
        </mxCell>
        <mxCell id="e_Fd-XsdZ4aZpfvhOUSF-62" value="BRIL DAQ" style="ellipse;whiteSpace=wrap;html=1;fillColor=none;" parent="1" vertex="1">
          <mxGeometry x="980" y="260" width="120" height="80" as="geometry" />
        </mxCell>
        <mxCell id="oAu8i6F82wXrjzI7C6l--1" style="edgeStyle=orthogonalEdgeStyle;rounded=0;orthogonalLoop=1;jettySize=auto;html=1;entryX=0.5;entryY=1;entryDx=0;entryDy=0;exitX=-0.1;exitY=1.031;exitDx=0;exitDy=0;exitPerimeter=0;strokeColor=#000099;strokeWidth=2;" parent="1" source="e_Fd-XsdZ4aZpfvhOUSF-12" target="e_Fd-XsdZ4aZpfvhOUSF-62" edge="1">
          <mxGeometry relative="1" as="geometry">
            <Array as="points">
              <mxPoint x="749" y="596" />
              <mxPoint x="1000" y="596" />
              <mxPoint x="1000" y="340" />
            </Array>
          </mxGeometry>
        </mxCell>
        <mxCell id="oAu8i6F82wXrjzI7C6l--9" value="TEPX Lumi Histograms" style="text;html=1;resizable=0;points=[];align=center;verticalAlign=middle;labelBackgroundColor=#ffffff;horizontal=0;rotation=0;" parent="oAu8i6F82wXrjzI7C6l--1" vertex="1" connectable="0">
          <mxGeometry x="0.1549" y="-2" relative="1" as="geometry">
            <mxPoint x="48" y="-102.5" as="offset" />
          </mxGeometry>
        </mxCell>
        <mxCell id="oAu8i6F82wXrjzI7C6l--3" value="D4R1 miniDAQ" style="ellipse;whiteSpace=wrap;html=1;fillColor=none;" parent="1" vertex="1">
          <mxGeometry x="480" y="706" width="120" height="80" as="geometry" />
        </mxCell>
        <mxCell id="oAu8i6F82wXrjzI7C6l--20" value="" style="group" parent="1" vertex="1" connectable="0">
          <mxGeometry x="700" y="720" width="210" height="56" as="geometry" />
        </mxCell>
        <mxCell id="oAu8i6F82wXrjzI7C6l--19" value="" style="rounded=0;whiteSpace=wrap;html=1;" parent="oAu8i6F82wXrjzI7C6l--20" vertex="1">
          <mxGeometry x="-10" y="-4" width="220" height="44" as="geometry" />
        </mxCell>
        <mxCell id="oAu8i6F82wXrjzI7C6l--15" value="" style="endArrow=classic;html=1;strokeColor=#3399FF;strokeWidth=1;endFill=1;" parent="oAu8i6F82wXrjzI7C6l--20" edge="1">
          <mxGeometry width="50" height="50" relative="1" as="geometry">
            <mxPoint y="10" as="sourcePoint" />
            <mxPoint x="60" y="10" as="targetPoint" />
          </mxGeometry>
        </mxCell>
        <mxCell id="oAu8i6F82wXrjzI7C6l--16" value="" style="endArrow=classic;html=1;strokeColor=#FF6666;strokeWidth=1;endFill=1;" parent="oAu8i6F82wXrjzI7C6l--20" edge="1">
          <mxGeometry width="50" height="50" relative="1" as="geometry">
            <mxPoint y="26" as="sourcePoint" />
            <mxPoint x="60" y="26" as="targetPoint" />
          </mxGeometry>
        </mxCell>
        <mxCell id="oAu8i6F82wXrjzI7C6l--17" value="D4R1 TCDS-like stream" style="text;html=1;strokeColor=none;fillColor=none;align=center;verticalAlign=middle;whiteSpace=wrap;rounded=0;" parent="oAu8i6F82wXrjzI7C6l--20" vertex="1">
          <mxGeometry x="65" width="135" height="20" as="geometry" />
        </mxCell>
        <mxCell id="oAu8i6F82wXrjzI7C6l--18" value="TEPX TCDS" style="text;html=1;strokeColor=none;fillColor=none;align=center;verticalAlign=middle;whiteSpace=wrap;rounded=0;" parent="oAu8i6F82wXrjzI7C6l--20" vertex="1">
          <mxGeometry x="68" y="16" width="135" height="20" as="geometry" />
        </mxCell>
        <mxCell id="oAu8i6F82wXrjzI7C6l--21" value="DTH to DTC links" style="text;html=1;strokeColor=none;fillColor=none;align=center;verticalAlign=middle;whiteSpace=wrap;rounded=0;" parent="1" vertex="1">
          <mxGeometry x="690" y="696" width="100" height="20" as="geometry" />
        </mxCell>
        <mxCell id="oAu8i6F82wXrjzI7C6l--23" style="edgeStyle=orthogonalEdgeStyle;rounded=0;orthogonalLoop=1;jettySize=auto;html=1;exitX=0.16;exitY=0.55;exitDx=0;exitDy=0;exitPerimeter=0;entryX=1.357;entryY=0.34;entryDx=0;entryDy=0;entryPerimeter=0;endArrow=classic;endFill=1;strokeColor=#000000;strokeWidth=2;" parent="1" source="oAu8i6F82wXrjzI7C6l--22" target="9xZ__yJcOjTzKGVj3mQi-8" edge="1">
          <mxGeometry relative="1" as="geometry">
            <Array as="points">
              <mxPoint x="850" y="44" />
              <mxPoint x="850" y="138" />
            </Array>
          </mxGeometry>
        </mxCell>
        <mxCell id="VDPa8rt16qKgHQVNXyiY-93" style="edgeStyle=orthogonalEdgeStyle;rounded=0;orthogonalLoop=1;jettySize=auto;html=1;entryX=0.5;entryY=0;entryDx=0;entryDy=0;strokeColor=#66B2FF;strokeWidth=2;" parent="1" source="oAu8i6F82wXrjzI7C6l--22" target="VDPa8rt16qKgHQVNXyiY-92" edge="1">
          <mxGeometry relative="1" as="geometry" />
        </mxCell>
        <mxCell id="oAu8i6F82wXrjzI7C6l--22" value="L1 TRG" style="ellipse;shape=cloud;whiteSpace=wrap;html=1;" parent="1" vertex="1">
          <mxGeometry x="915" width="120" height="80" as="geometry" />
        </mxCell>
        <mxCell id="oAu8i6F82wXrjzI7C6l--24" value="D4R1 Crate" style="text;html=1;strokeColor=none;fillColor=none;align=center;verticalAlign=middle;whiteSpace=wrap;rounded=0;" parent="1" vertex="1">
          <mxGeometry x="425" y="453" width="40" height="20" as="geometry" />
        </mxCell>
        <mxCell id="oAu8i6F82wXrjzI7C6l--25" value="TEPX Crates" style="text;html=1;strokeColor=none;fillColor=none;align=center;verticalAlign=middle;whiteSpace=wrap;rounded=0;" parent="1" vertex="1">
          <mxGeometry x="515" y="450" width="40" height="20" as="geometry" />
        </mxCell>
        <mxCell id="oAu8i6F82wXrjzI7C6l--26" value="Lumi Crate" style="text;html=1;strokeColor=none;fillColor=none;align=center;verticalAlign=middle;whiteSpace=wrap;rounded=0;" parent="1" vertex="1">
          <mxGeometry x="760" y="453" width="40" height="20" as="geometry" />
        </mxCell>
        <mxCell id="VDPa8rt16qKgHQVNXyiY-28" value="" style="group" parent="1" vertex="1" connectable="0">
          <mxGeometry x="1070" y="550" width="120" height="134" as="geometry" />
        </mxCell>
        <mxCell id="VDPa8rt16qKgHQVNXyiY-6" value="" style="rounded=0;whiteSpace=wrap;html=1;fillColor=none;" parent="VDPa8rt16qKgHQVNXyiY-28" vertex="1">
          <mxGeometry width="119.99999999999999" height="119.99999999999999" as="geometry" />
        </mxCell>
        <mxCell id="VDPa8rt16qKgHQVNXyiY-21" style="edgeStyle=orthogonalEdgeStyle;rounded=0;orthogonalLoop=1;jettySize=auto;html=1;strokeColor=#FF6666;strokeWidth=1;exitX=0.533;exitY=1.004;exitDx=0;exitDy=0;exitPerimeter=0;entryX=0.389;entryY=1.003;entryDx=0;entryDy=0;entryPerimeter=0;" parent="VDPa8rt16qKgHQVNXyiY-28" source="VDPa8rt16qKgHQVNXyiY-7" target="VDPa8rt16qKgHQVNXyiY-6" edge="1">
          <mxGeometry relative="1" as="geometry">
            <mxPoint x="45.99999999999999" y="123.99999999999997" as="targetPoint" />
            <Array as="points">
              <mxPoint x="14.999999999999998" y="134" />
              <mxPoint x="46.99999999999999" y="134" />
            </Array>
          </mxGeometry>
        </mxCell>
        <mxCell id="VDPa8rt16qKgHQVNXyiY-22" style="edgeStyle=orthogonalEdgeStyle;rounded=0;orthogonalLoop=1;jettySize=auto;html=1;entryX=0.475;entryY=1.014;entryDx=0;entryDy=0;entryPerimeter=0;strokeColor=#FF6666;strokeWidth=1;exitX=0.4;exitY=1.007;exitDx=0;exitDy=0;exitPerimeter=0;" parent="VDPa8rt16qKgHQVNXyiY-28" source="VDPa8rt16qKgHQVNXyiY-7" target="VDPa8rt16qKgHQVNXyiY-6" edge="1">
          <mxGeometry relative="1" as="geometry">
            <Array as="points">
              <mxPoint x="13.999999999999998" y="134" />
              <mxPoint x="56.99999999999999" y="134" />
            </Array>
          </mxGeometry>
        </mxCell>
        <mxCell id="VDPa8rt16qKgHQVNXyiY-23" style="edgeStyle=orthogonalEdgeStyle;rounded=0;orthogonalLoop=1;jettySize=auto;html=1;entryX=0.556;entryY=1.008;entryDx=0;entryDy=0;entryPerimeter=0;strokeColor=#FF6666;strokeWidth=1;" parent="VDPa8rt16qKgHQVNXyiY-28" source="VDPa8rt16qKgHQVNXyiY-7" target="VDPa8rt16qKgHQVNXyiY-6" edge="1">
          <mxGeometry relative="1" as="geometry">
            <Array as="points">
              <mxPoint x="14.999999999999998" y="134" />
              <mxPoint x="66.99999999999999" y="134" />
            </Array>
          </mxGeometry>
        </mxCell>
        <mxCell id="VDPa8rt16qKgHQVNXyiY-24" style="edgeStyle=orthogonalEdgeStyle;rounded=0;orthogonalLoop=1;jettySize=auto;html=1;entryX=0.633;entryY=1.014;entryDx=0;entryDy=0;entryPerimeter=0;strokeColor=#FF6666;strokeWidth=1;" parent="VDPa8rt16qKgHQVNXyiY-28" source="VDPa8rt16qKgHQVNXyiY-7" target="VDPa8rt16qKgHQVNXyiY-6" edge="1">
          <mxGeometry relative="1" as="geometry">
            <Array as="points">
              <mxPoint x="14.999999999999998" y="134" />
              <mxPoint x="75.99999999999999" y="134" />
            </Array>
          </mxGeometry>
        </mxCell>
        <mxCell id="VDPa8rt16qKgHQVNXyiY-25" style="edgeStyle=orthogonalEdgeStyle;rounded=0;orthogonalLoop=1;jettySize=auto;html=1;entryX=0.711;entryY=1.014;entryDx=0;entryDy=0;entryPerimeter=0;strokeColor=#FF6666;strokeWidth=1;" parent="VDPa8rt16qKgHQVNXyiY-28" source="VDPa8rt16qKgHQVNXyiY-7" target="VDPa8rt16qKgHQVNXyiY-6" edge="1">
          <mxGeometry relative="1" as="geometry">
            <Array as="points">
              <mxPoint x="14.999999999999998" y="134" />
              <mxPoint x="84.99999999999999" y="134" />
            </Array>
          </mxGeometry>
        </mxCell>
        <mxCell id="VDPa8rt16qKgHQVNXyiY-26" style="edgeStyle=orthogonalEdgeStyle;rounded=0;orthogonalLoop=1;jettySize=auto;html=1;entryX=0.794;entryY=1.011;entryDx=0;entryDy=0;entryPerimeter=0;strokeColor=#FF6666;strokeWidth=1;" parent="VDPa8rt16qKgHQVNXyiY-28" source="VDPa8rt16qKgHQVNXyiY-7" target="VDPa8rt16qKgHQVNXyiY-6" edge="1">
          <mxGeometry relative="1" as="geometry">
            <Array as="points">
              <mxPoint x="14.999999999999998" y="134" />
              <mxPoint x="94.99999999999999" y="134" />
            </Array>
          </mxGeometry>
        </mxCell>
        <mxCell id="VDPa8rt16qKgHQVNXyiY-27" style="edgeStyle=orthogonalEdgeStyle;rounded=0;orthogonalLoop=1;jettySize=auto;html=1;entryX=0.881;entryY=1.014;entryDx=0;entryDy=0;entryPerimeter=0;strokeColor=#FF6666;strokeWidth=1;" parent="VDPa8rt16qKgHQVNXyiY-28" source="VDPa8rt16qKgHQVNXyiY-7" target="VDPa8rt16qKgHQVNXyiY-6" edge="1">
          <mxGeometry relative="1" as="geometry">
            <Array as="points">
              <mxPoint x="14.999999999999998" y="134" />
              <mxPoint x="105.99999999999999" y="134" />
            </Array>
          </mxGeometry>
        </mxCell>
        <mxCell id="VDPa8rt16qKgHQVNXyiY-7" value="TB2S DTH" style="shape=mxgraph.rack.oracle.netra_cp3260_atca_blade_server;html=1;labelPosition=center;align=center;spacingLeft=15;dashed=0;shadow=0;fillColor=#ffffff;horizontal=0;verticalLabelPosition=top;verticalAlign=bottom;" parent="VDPa8rt16qKgHQVNXyiY-28" vertex="1">
          <mxGeometry x="9.999999999999998" y="3.499999999999999" width="9.999999999999998" height="112.99999999999997" as="geometry" />
        </mxCell>
        <mxCell id="VDPa8rt16qKgHQVNXyiY-8" style="edgeStyle=orthogonalEdgeStyle;rounded=0;orthogonalLoop=1;jettySize=auto;html=1;startArrow=classic;startFill=1;endArrow=none;endFill=0;strokeColor=#FF6666;strokeWidth=1;entryX=0.5;entryY=1.001;entryDx=0;entryDy=0;entryPerimeter=0;exitX=0.306;exitY=1.008;exitDx=0;exitDy=0;exitPerimeter=0;" parent="VDPa8rt16qKgHQVNXyiY-28" source="VDPa8rt16qKgHQVNXyiY-6" target="VDPa8rt16qKgHQVNXyiY-7" edge="1">
          <mxGeometry relative="1" as="geometry">
            <mxPoint x="64.99999999999999" y="120.99999999999996" as="sourcePoint" />
            <Array as="points">
              <mxPoint x="36.99999999999999" y="134" />
              <mxPoint x="14.999999999999998" y="134" />
            </Array>
            <mxPoint x="10.999999999999998" y="119.99999999999999" as="targetPoint" />
          </mxGeometry>
        </mxCell>
        <mxCell id="VDPa8rt16qKgHQVNXyiY-9" value="OT DTC" style="shape=mxgraph.rack.oracle.netra_cp3260_atca_blade_server;html=1;labelPosition=center;align=center;spacingLeft=15;dashed=0;shadow=0;fillColor=#ffffff;horizontal=0;verticalLabelPosition=top;verticalAlign=bottom;" parent="VDPa8rt16qKgHQVNXyiY-28" vertex="1">
          <mxGeometry x="30.999999999999996" y="3.499999999999999" width="9.999999999999998" height="112.99999999999997" as="geometry" />
        </mxCell>
        <mxCell id="VDPa8rt16qKgHQVNXyiY-11" value="OT DTC" style="shape=mxgraph.rack.oracle.netra_cp3260_atca_blade_server;html=1;labelPosition=center;align=center;spacingLeft=15;dashed=0;shadow=0;fillColor=#ffffff;horizontal=0;verticalLabelPosition=top;verticalAlign=bottom;" parent="VDPa8rt16qKgHQVNXyiY-28" vertex="1">
          <mxGeometry x="40.99999999999999" y="3.499999999999999" width="9.999999999999998" height="112.99999999999997" as="geometry" />
        </mxCell>
        <mxCell id="VDPa8rt16qKgHQVNXyiY-13" value="OT DTC" style="shape=mxgraph.rack.oracle.netra_cp3260_atca_blade_server;html=1;labelPosition=center;align=center;spacingLeft=15;dashed=0;shadow=0;fillColor=#ffffff;horizontal=0;verticalLabelPosition=top;verticalAlign=bottom;" parent="VDPa8rt16qKgHQVNXyiY-28" vertex="1">
          <mxGeometry x="50.99999999999999" y="3.499999999999999" width="9.999999999999998" height="112.99999999999997" as="geometry" />
        </mxCell>
        <mxCell id="VDPa8rt16qKgHQVNXyiY-14" value="OT DTC" style="shape=mxgraph.rack.oracle.netra_cp3260_atca_blade_server;html=1;labelPosition=center;align=center;spacingLeft=15;dashed=0;shadow=0;fillColor=#ffffff;horizontal=0;verticalLabelPosition=top;verticalAlign=bottom;" parent="VDPa8rt16qKgHQVNXyiY-28" vertex="1">
          <mxGeometry x="60.99999999999999" y="3.499999999999999" width="9.999999999999998" height="112.99999999999997" as="geometry" />
        </mxCell>
        <mxCell id="VDPa8rt16qKgHQVNXyiY-15" value="OT DTC" style="shape=mxgraph.rack.oracle.netra_cp3260_atca_blade_server;html=1;labelPosition=center;align=center;spacingLeft=15;dashed=0;shadow=0;fillColor=#ffffff;horizontal=0;verticalLabelPosition=top;verticalAlign=bottom;" parent="VDPa8rt16qKgHQVNXyiY-28" vertex="1">
          <mxGeometry x="70.99999999999999" y="3.499999999999999" width="9.999999999999998" height="112.99999999999997" as="geometry" />
        </mxCell>
        <mxCell id="VDPa8rt16qKgHQVNXyiY-16" value="OT DTC" style="shape=mxgraph.rack.oracle.netra_cp3260_atca_blade_server;html=1;labelPosition=center;align=center;spacingLeft=15;dashed=0;shadow=0;fillColor=#ffffff;horizontal=0;verticalLabelPosition=top;verticalAlign=bottom;" parent="VDPa8rt16qKgHQVNXyiY-28" vertex="1">
          <mxGeometry x="81" y="3.499999999999999" width="9.999999999999998" height="112.99999999999997" as="geometry" />
        </mxCell>
        <mxCell id="VDPa8rt16qKgHQVNXyiY-17" value="OT DTC" style="shape=mxgraph.rack.oracle.netra_cp3260_atca_blade_server;html=1;labelPosition=center;align=center;spacingLeft=15;dashed=0;shadow=0;fillColor=#ffffff;horizontal=0;verticalLabelPosition=top;verticalAlign=bottom;" parent="VDPa8rt16qKgHQVNXyiY-28" vertex="1">
          <mxGeometry x="90.99999999999999" y="3.499999999999999" width="9.999999999999998" height="112.99999999999997" as="geometry" />
        </mxCell>
        <mxCell id="VDPa8rt16qKgHQVNXyiY-18" value="OT DTC" style="shape=mxgraph.rack.oracle.netra_cp3260_atca_blade_server;html=1;labelPosition=center;align=center;spacingLeft=15;dashed=0;shadow=0;fillColor=#ffffff;horizontal=0;verticalLabelPosition=top;verticalAlign=bottom;" parent="VDPa8rt16qKgHQVNXyiY-28" vertex="1">
          <mxGeometry x="100.99999999999999" y="3.499999999999999" width="9.999999999999998" height="112.99999999999997" as="geometry" />
        </mxCell>
        <mxCell id="VDPa8rt16qKgHQVNXyiY-31" style="edgeStyle=orthogonalEdgeStyle;rounded=0;orthogonalLoop=1;jettySize=auto;html=1;entryX=0.5;entryY=1;entryDx=0;entryDy=0;strokeColor=#000099;strokeWidth=2;" parent="1" target="e_Fd-XsdZ4aZpfvhOUSF-62" edge="1">
          <mxGeometry relative="1" as="geometry">
            <mxPoint x="1105" y="560" as="sourcePoint" />
            <Array as="points">
              <mxPoint x="1105" y="560" />
              <mxPoint x="1180" y="560" />
              <mxPoint x="1180" y="390" />
              <mxPoint x="1080" y="390" />
              <mxPoint x="1080" y="340" />
            </Array>
          </mxGeometry>
        </mxCell>
        <mxCell id="VDPa8rt16qKgHQVNXyiY-32" value="TB2S L3 Lumi Histograms" style="text;html=1;resizable=0;points=[];align=center;verticalAlign=middle;labelBackgroundColor=#ffffff;horizontal=0;rotation=0;" parent="1" vertex="1" connectable="0">
          <mxGeometry x="1156" y="473" as="geometry">
            <mxPoint x="35" y="8.5" as="offset" />
          </mxGeometry>
        </mxCell>
        <mxCell id="VDPa8rt16qKgHQVNXyiY-33" style="edgeStyle=orthogonalEdgeStyle;rounded=0;orthogonalLoop=1;jettySize=auto;html=1;entryX=0.875;entryY=0.5;entryDx=0;entryDy=0;entryPerimeter=0;strokeColor=#66B2FF;strokeWidth=2;" parent="1" target="oAu8i6F82wXrjzI7C6l--22" edge="1">
          <mxGeometry relative="1" as="geometry">
            <mxPoint x="1180" y="550" as="sourcePoint" />
            <Array as="points">
              <mxPoint x="1106" y="550" />
              <mxPoint x="1106" y="40" />
            </Array>
          </mxGeometry>
        </mxCell>
        <mxCell id="VDPa8rt16qKgHQVNXyiY-36" value="TB2S Stub Data" style="text;html=1;resizable=0;points=[];align=center;verticalAlign=middle;labelBackgroundColor=#ffffff;rotation=270;" parent="VDPa8rt16qKgHQVNXyiY-33" vertex="1" connectable="0">
          <mxGeometry x="0.0715" y="-2" relative="1" as="geometry">
            <mxPoint x="-58" y="-161" as="offset" />
          </mxGeometry>
        </mxCell>
        <mxCell id="VDPa8rt16qKgHQVNXyiY-34" style="edgeStyle=orthogonalEdgeStyle;rounded=0;orthogonalLoop=1;jettySize=auto;html=1;entryX=0.5;entryY=1;entryDx=0;entryDy=0;strokeColor=#808080;strokeWidth=2;exitX=-0.133;exitY=0.58;exitDx=0;exitDy=0;exitPerimeter=0;" parent="1" source="VDPa8rt16qKgHQVNXyiY-7" target="e_Fd-XsdZ4aZpfvhOUSF-60" edge="1">
          <mxGeometry relative="1" as="geometry">
            <Array as="points">
              <mxPoint x="980" y="619" />
              <mxPoint x="980" y="530" />
              <mxPoint x="893" y="530" />
            </Array>
          </mxGeometry>
        </mxCell>
        <mxCell id="VDPa8rt16qKgHQVNXyiY-35" value="TB2S L3 L1 data" style="text;html=1;resizable=0;points=[];align=center;verticalAlign=middle;labelBackgroundColor=#ffffff;rotation=270;" parent="VDPa8rt16qKgHQVNXyiY-34" vertex="1" connectable="0">
          <mxGeometry x="-0.6074" relative="1" as="geometry">
            <mxPoint x="-84.5" y="-199" as="offset" />
          </mxGeometry>
        </mxCell>
        <mxCell id="VDPa8rt16qKgHQVNXyiY-37" value="TB2S Crates" style="text;html=1;strokeColor=none;fillColor=none;align=center;verticalAlign=middle;whiteSpace=wrap;rounded=0;" parent="1" vertex="1">
          <mxGeometry x="1116" y="520" width="40" height="20" as="geometry" />
        </mxCell>
        <mxCell id="VDPa8rt16qKgHQVNXyiY-40" value="" style="group" parent="1" vertex="1" connectable="0">
          <mxGeometry x="1240" y="550" width="120" height="134" as="geometry" />
        </mxCell>
        <mxCell id="VDPa8rt16qKgHQVNXyiY-41" value="" style="rounded=0;whiteSpace=wrap;html=1;fillColor=none;" parent="VDPa8rt16qKgHQVNXyiY-40" vertex="1">
          <mxGeometry width="119.99999999999999" height="119.99999999999999" as="geometry" />
        </mxCell>
        <mxCell id="VDPa8rt16qKgHQVNXyiY-42" style="edgeStyle=orthogonalEdgeStyle;rounded=0;orthogonalLoop=1;jettySize=auto;html=1;strokeColor=#FF6666;strokeWidth=1;exitX=0.533;exitY=1.004;exitDx=0;exitDy=0;exitPerimeter=0;entryX=0.389;entryY=1.003;entryDx=0;entryDy=0;entryPerimeter=0;" parent="VDPa8rt16qKgHQVNXyiY-40" source="VDPa8rt16qKgHQVNXyiY-49" target="VDPa8rt16qKgHQVNXyiY-41" edge="1">
          <mxGeometry relative="1" as="geometry">
            <mxPoint x="45.99999999999999" y="123.99999999999997" as="targetPoint" />
            <Array as="points">
              <mxPoint x="14.999999999999998" y="134" />
              <mxPoint x="46.99999999999999" y="134" />
            </Array>
          </mxGeometry>
        </mxCell>
        <mxCell id="VDPa8rt16qKgHQVNXyiY-43" style="edgeStyle=orthogonalEdgeStyle;rounded=0;orthogonalLoop=1;jettySize=auto;html=1;entryX=0.475;entryY=1.014;entryDx=0;entryDy=0;entryPerimeter=0;strokeColor=#FF6666;strokeWidth=1;exitX=0.4;exitY=1.007;exitDx=0;exitDy=0;exitPerimeter=0;" parent="VDPa8rt16qKgHQVNXyiY-40" source="VDPa8rt16qKgHQVNXyiY-49" target="VDPa8rt16qKgHQVNXyiY-41" edge="1">
          <mxGeometry relative="1" as="geometry">
            <Array as="points">
              <mxPoint x="13.999999999999998" y="134" />
              <mxPoint x="56.99999999999999" y="134" />
            </Array>
          </mxGeometry>
        </mxCell>
        <mxCell id="VDPa8rt16qKgHQVNXyiY-44" style="edgeStyle=orthogonalEdgeStyle;rounded=0;orthogonalLoop=1;jettySize=auto;html=1;entryX=0.556;entryY=1.008;entryDx=0;entryDy=0;entryPerimeter=0;strokeColor=#FF6666;strokeWidth=1;" parent="VDPa8rt16qKgHQVNXyiY-40" source="VDPa8rt16qKgHQVNXyiY-49" target="VDPa8rt16qKgHQVNXyiY-41" edge="1">
          <mxGeometry relative="1" as="geometry">
            <Array as="points">
              <mxPoint x="14.999999999999998" y="134" />
              <mxPoint x="66.99999999999999" y="134" />
            </Array>
          </mxGeometry>
        </mxCell>
        <mxCell id="VDPa8rt16qKgHQVNXyiY-45" style="edgeStyle=orthogonalEdgeStyle;rounded=0;orthogonalLoop=1;jettySize=auto;html=1;entryX=0.633;entryY=1.014;entryDx=0;entryDy=0;entryPerimeter=0;strokeColor=#FF6666;strokeWidth=1;" parent="VDPa8rt16qKgHQVNXyiY-40" source="VDPa8rt16qKgHQVNXyiY-49" target="VDPa8rt16qKgHQVNXyiY-41" edge="1">
          <mxGeometry relative="1" as="geometry">
            <Array as="points">
              <mxPoint x="14.999999999999998" y="134" />
              <mxPoint x="75.99999999999999" y="134" />
            </Array>
          </mxGeometry>
        </mxCell>
        <mxCell id="VDPa8rt16qKgHQVNXyiY-46" style="edgeStyle=orthogonalEdgeStyle;rounded=0;orthogonalLoop=1;jettySize=auto;html=1;entryX=0.711;entryY=1.014;entryDx=0;entryDy=0;entryPerimeter=0;strokeColor=#FF6666;strokeWidth=1;" parent="VDPa8rt16qKgHQVNXyiY-40" source="VDPa8rt16qKgHQVNXyiY-49" target="VDPa8rt16qKgHQVNXyiY-41" edge="1">
          <mxGeometry relative="1" as="geometry">
            <Array as="points">
              <mxPoint x="14.999999999999998" y="134" />
              <mxPoint x="84.99999999999999" y="134" />
            </Array>
          </mxGeometry>
        </mxCell>
        <mxCell id="VDPa8rt16qKgHQVNXyiY-47" style="edgeStyle=orthogonalEdgeStyle;rounded=0;orthogonalLoop=1;jettySize=auto;html=1;entryX=0.794;entryY=1.011;entryDx=0;entryDy=0;entryPerimeter=0;strokeColor=#FF6666;strokeWidth=1;" parent="VDPa8rt16qKgHQVNXyiY-40" source="VDPa8rt16qKgHQVNXyiY-49" target="VDPa8rt16qKgHQVNXyiY-41" edge="1">
          <mxGeometry relative="1" as="geometry">
            <Array as="points">
              <mxPoint x="14.999999999999998" y="134" />
              <mxPoint x="94.99999999999999" y="134" />
            </Array>
          </mxGeometry>
        </mxCell>
        <mxCell id="VDPa8rt16qKgHQVNXyiY-48" style="edgeStyle=orthogonalEdgeStyle;rounded=0;orthogonalLoop=1;jettySize=auto;html=1;entryX=0.881;entryY=1.014;entryDx=0;entryDy=0;entryPerimeter=0;strokeColor=#FF6666;strokeWidth=1;" parent="VDPa8rt16qKgHQVNXyiY-40" source="VDPa8rt16qKgHQVNXyiY-49" target="VDPa8rt16qKgHQVNXyiY-41" edge="1">
          <mxGeometry relative="1" as="geometry">
            <Array as="points">
              <mxPoint x="14.999999999999998" y="134" />
              <mxPoint x="105.99999999999999" y="134" />
            </Array>
          </mxGeometry>
        </mxCell>
        <mxCell id="VDPa8rt16qKgHQVNXyiY-49" value="HF DTH" style="shape=mxgraph.rack.oracle.netra_cp3260_atca_blade_server;html=1;labelPosition=center;align=center;spacingLeft=15;dashed=0;shadow=0;fillColor=#ffffff;horizontal=0;verticalLabelPosition=top;verticalAlign=bottom;" parent="VDPa8rt16qKgHQVNXyiY-40" vertex="1">
          <mxGeometry x="9.999999999999998" y="3.499999999999999" width="9.999999999999998" height="112.99999999999997" as="geometry" />
        </mxCell>
        <mxCell id="VDPa8rt16qKgHQVNXyiY-50" style="edgeStyle=orthogonalEdgeStyle;rounded=0;orthogonalLoop=1;jettySize=auto;html=1;startArrow=classic;startFill=1;endArrow=none;endFill=0;strokeColor=#FF6666;strokeWidth=1;entryX=0.5;entryY=1.001;entryDx=0;entryDy=0;entryPerimeter=0;exitX=0.306;exitY=1.008;exitDx=0;exitDy=0;exitPerimeter=0;" parent="VDPa8rt16qKgHQVNXyiY-40" source="VDPa8rt16qKgHQVNXyiY-41" target="VDPa8rt16qKgHQVNXyiY-49" edge="1">
          <mxGeometry relative="1" as="geometry">
            <mxPoint x="64.99999999999999" y="120.99999999999996" as="sourcePoint" />
            <Array as="points">
              <mxPoint x="36.99999999999999" y="134" />
              <mxPoint x="14.999999999999998" y="134" />
            </Array>
            <mxPoint x="10.999999999999998" y="119.99999999999999" as="targetPoint" />
          </mxGeometry>
        </mxCell>
        <mxCell id="VDPa8rt16qKgHQVNXyiY-51" value="HF BE&lt;br&gt;" style="shape=mxgraph.rack.oracle.netra_cp3260_atca_blade_server;html=1;labelPosition=center;align=center;spacingLeft=15;dashed=0;shadow=0;fillColor=#ffffff;horizontal=0;verticalLabelPosition=top;verticalAlign=bottom;" parent="VDPa8rt16qKgHQVNXyiY-40" vertex="1">
          <mxGeometry x="30.999999999999996" y="3.499999999999999" width="9.999999999999998" height="112.99999999999997" as="geometry" />
        </mxCell>
        <mxCell id="VDPa8rt16qKgHQVNXyiY-52" value="HF BE&lt;br&gt;" style="shape=mxgraph.rack.oracle.netra_cp3260_atca_blade_server;html=1;labelPosition=center;align=center;spacingLeft=15;dashed=0;shadow=0;fillColor=#ffffff;horizontal=0;verticalLabelPosition=top;verticalAlign=bottom;" parent="VDPa8rt16qKgHQVNXyiY-40" vertex="1">
          <mxGeometry x="40.99999999999999" y="3.499999999999999" width="9.999999999999998" height="112.99999999999997" as="geometry" />
        </mxCell>
        <mxCell id="VDPa8rt16qKgHQVNXyiY-53" value="HF BE" style="shape=mxgraph.rack.oracle.netra_cp3260_atca_blade_server;html=1;labelPosition=center;align=center;spacingLeft=15;dashed=0;shadow=0;fillColor=#ffffff;horizontal=0;verticalLabelPosition=top;verticalAlign=bottom;" parent="VDPa8rt16qKgHQVNXyiY-40" vertex="1">
          <mxGeometry x="50.99999999999999" y="3.499999999999999" width="9.999999999999998" height="112.99999999999997" as="geometry" />
        </mxCell>
        <mxCell id="VDPa8rt16qKgHQVNXyiY-54" value="HF BE" style="shape=mxgraph.rack.oracle.netra_cp3260_atca_blade_server;html=1;labelPosition=center;align=center;spacingLeft=15;dashed=0;shadow=0;fillColor=#ffffff;horizontal=0;verticalLabelPosition=top;verticalAlign=bottom;" parent="VDPa8rt16qKgHQVNXyiY-40" vertex="1">
          <mxGeometry x="60.99999999999999" y="3.499999999999999" width="9.999999999999998" height="112.99999999999997" as="geometry" />
        </mxCell>
        <mxCell id="VDPa8rt16qKgHQVNXyiY-55" value="HF BE&lt;br&gt;" style="shape=mxgraph.rack.oracle.netra_cp3260_atca_blade_server;html=1;labelPosition=center;align=center;spacingLeft=15;dashed=0;shadow=0;fillColor=#ffffff;horizontal=0;verticalLabelPosition=top;verticalAlign=bottom;" parent="VDPa8rt16qKgHQVNXyiY-40" vertex="1">
          <mxGeometry x="70.99999999999999" y="3.499999999999999" width="9.999999999999998" height="112.99999999999997" as="geometry" />
        </mxCell>
        <mxCell id="VDPa8rt16qKgHQVNXyiY-56" value="HF BE" style="shape=mxgraph.rack.oracle.netra_cp3260_atca_blade_server;html=1;labelPosition=center;align=center;spacingLeft=15;dashed=0;shadow=0;fillColor=#ffffff;horizontal=0;verticalLabelPosition=top;verticalAlign=bottom;" parent="VDPa8rt16qKgHQVNXyiY-40" vertex="1">
          <mxGeometry x="81" y="3.499999999999999" width="9.999999999999998" height="112.99999999999997" as="geometry" />
        </mxCell>
        <mxCell id="VDPa8rt16qKgHQVNXyiY-57" value="HF BE" style="shape=mxgraph.rack.oracle.netra_cp3260_atca_blade_server;html=1;labelPosition=center;align=center;spacingLeft=15;dashed=0;shadow=0;fillColor=#ffffff;horizontal=0;verticalLabelPosition=top;verticalAlign=bottom;" parent="VDPa8rt16qKgHQVNXyiY-40" vertex="1">
          <mxGeometry x="90.99999999999999" y="3.499999999999999" width="9.999999999999998" height="112.99999999999997" as="geometry" />
        </mxCell>
        <mxCell id="VDPa8rt16qKgHQVNXyiY-58" value="HF BE" style="shape=mxgraph.rack.oracle.netra_cp3260_atca_blade_server;html=1;labelPosition=center;align=center;spacingLeft=15;dashed=0;shadow=0;fillColor=#ffffff;horizontal=0;verticalLabelPosition=top;verticalAlign=bottom;" parent="VDPa8rt16qKgHQVNXyiY-40" vertex="1">
          <mxGeometry x="100.99999999999999" y="3.499999999999999" width="9.999999999999998" height="112.99999999999997" as="geometry" />
        </mxCell>
        <mxCell id="VDPa8rt16qKgHQVNXyiY-61" style="edgeStyle=orthogonalEdgeStyle;rounded=0;orthogonalLoop=1;jettySize=auto;html=1;entryX=1.008;entryY=0.4;entryDx=0;entryDy=0;entryPerimeter=0;strokeColor=#000099;strokeWidth=2;" parent="1" source="VDPa8rt16qKgHQVNXyiY-51" target="e_Fd-XsdZ4aZpfvhOUSF-62" edge="1">
          <mxGeometry relative="1" as="geometry">
            <mxPoint x="1280" y="560" as="sourcePoint" />
            <Array as="points">
              <mxPoint x="1346" y="560" />
              <mxPoint x="1346" y="292" />
            </Array>
          </mxGeometry>
        </mxCell>
        <mxCell id="VDPa8rt16qKgHQVNXyiY-63" value="HF Lumi Histograms" style="text;html=1;resizable=0;points=[];align=center;verticalAlign=middle;labelBackgroundColor=#ffffff;rotation=270;" parent="VDPa8rt16qKgHQVNXyiY-61" vertex="1" connectable="0">
          <mxGeometry x="-0.3644" y="-1" relative="1" as="geometry">
            <mxPoint x="13" y="-2" as="offset" />
          </mxGeometry>
        </mxCell>
        <mxCell id="VDPa8rt16qKgHQVNXyiY-62" style="edgeStyle=orthogonalEdgeStyle;rounded=0;orthogonalLoop=1;jettySize=auto;html=1;entryX=1;entryY=1;entryDx=0;entryDy=0;strokeColor=#808080;strokeWidth=2;" parent="1" source="VDPa8rt16qKgHQVNXyiY-49" target="e_Fd-XsdZ4aZpfvhOUSF-60" edge="1">
          <mxGeometry relative="1" as="geometry">
            <Array as="points">
              <mxPoint x="1220" y="610" />
              <mxPoint x="1220" y="760" />
              <mxPoint x="935" y="760" />
            </Array>
          </mxGeometry>
        </mxCell>
        <mxCell id="VDPa8rt16qKgHQVNXyiY-64" value="HF L1 data" style="text;html=1;resizable=0;points=[];align=center;verticalAlign=middle;labelBackgroundColor=#ffffff;rotation=270;" parent="VDPa8rt16qKgHQVNXyiY-62" vertex="1" connectable="0">
          <mxGeometry x="0.6522" y="1" relative="1" as="geometry">
            <mxPoint x="9" y="-54" as="offset" />
          </mxGeometry>
        </mxCell>
        <mxCell id="VDPa8rt16qKgHQVNXyiY-65" value="" style="group" parent="1" vertex="1" connectable="0">
          <mxGeometry x="1414" y="156.5" width="120" height="134" as="geometry" />
        </mxCell>
        <mxCell id="VDPa8rt16qKgHQVNXyiY-66" value="" style="rounded=0;whiteSpace=wrap;html=1;fillColor=none;" parent="VDPa8rt16qKgHQVNXyiY-65" vertex="1">
          <mxGeometry width="119.99999999999999" height="119.99999999999999" as="geometry" />
        </mxCell>
        <mxCell id="VDPa8rt16qKgHQVNXyiY-67" style="edgeStyle=orthogonalEdgeStyle;rounded=0;orthogonalLoop=1;jettySize=auto;html=1;strokeColor=#FF6666;strokeWidth=1;exitX=0.533;exitY=1.004;exitDx=0;exitDy=0;exitPerimeter=0;entryX=0.389;entryY=1.003;entryDx=0;entryDy=0;entryPerimeter=0;" parent="VDPa8rt16qKgHQVNXyiY-65" source="VDPa8rt16qKgHQVNXyiY-74" target="VDPa8rt16qKgHQVNXyiY-66" edge="1">
          <mxGeometry relative="1" as="geometry">
            <mxPoint x="45.99999999999999" y="123.99999999999997" as="targetPoint" />
            <Array as="points">
              <mxPoint x="14.999999999999998" y="134" />
              <mxPoint x="46.99999999999999" y="134" />
            </Array>
          </mxGeometry>
        </mxCell>
        <mxCell id="VDPa8rt16qKgHQVNXyiY-68" style="edgeStyle=orthogonalEdgeStyle;rounded=0;orthogonalLoop=1;jettySize=auto;html=1;entryX=0.475;entryY=1.014;entryDx=0;entryDy=0;entryPerimeter=0;strokeColor=#FF6666;strokeWidth=1;exitX=0.4;exitY=1.007;exitDx=0;exitDy=0;exitPerimeter=0;" parent="VDPa8rt16qKgHQVNXyiY-65" source="VDPa8rt16qKgHQVNXyiY-74" target="VDPa8rt16qKgHQVNXyiY-66" edge="1">
          <mxGeometry relative="1" as="geometry">
            <Array as="points">
              <mxPoint x="13.999999999999998" y="134" />
              <mxPoint x="56.99999999999999" y="134" />
            </Array>
          </mxGeometry>
        </mxCell>
        <mxCell id="VDPa8rt16qKgHQVNXyiY-69" style="edgeStyle=orthogonalEdgeStyle;rounded=0;orthogonalLoop=1;jettySize=auto;html=1;entryX=0.556;entryY=1.008;entryDx=0;entryDy=0;entryPerimeter=0;strokeColor=#FF6666;strokeWidth=1;" parent="VDPa8rt16qKgHQVNXyiY-65" source="VDPa8rt16qKgHQVNXyiY-74" target="VDPa8rt16qKgHQVNXyiY-66" edge="1">
          <mxGeometry relative="1" as="geometry">
            <Array as="points">
              <mxPoint x="14.999999999999998" y="134" />
              <mxPoint x="66.99999999999999" y="134" />
            </Array>
          </mxGeometry>
        </mxCell>
        <mxCell id="VDPa8rt16qKgHQVNXyiY-70" style="edgeStyle=orthogonalEdgeStyle;rounded=0;orthogonalLoop=1;jettySize=auto;html=1;entryX=0.633;entryY=1.014;entryDx=0;entryDy=0;entryPerimeter=0;strokeColor=#FF6666;strokeWidth=1;" parent="VDPa8rt16qKgHQVNXyiY-65" source="VDPa8rt16qKgHQVNXyiY-74" target="VDPa8rt16qKgHQVNXyiY-66" edge="1">
          <mxGeometry relative="1" as="geometry">
            <Array as="points">
              <mxPoint x="14.999999999999998" y="134" />
              <mxPoint x="75.99999999999999" y="134" />
            </Array>
          </mxGeometry>
        </mxCell>
        <mxCell id="VDPa8rt16qKgHQVNXyiY-71" style="edgeStyle=orthogonalEdgeStyle;rounded=0;orthogonalLoop=1;jettySize=auto;html=1;entryX=0.711;entryY=1.014;entryDx=0;entryDy=0;entryPerimeter=0;strokeColor=#FF6666;strokeWidth=1;" parent="VDPa8rt16qKgHQVNXyiY-65" source="VDPa8rt16qKgHQVNXyiY-74" target="VDPa8rt16qKgHQVNXyiY-66" edge="1">
          <mxGeometry relative="1" as="geometry">
            <Array as="points">
              <mxPoint x="14.999999999999998" y="134" />
              <mxPoint x="84.99999999999999" y="134" />
            </Array>
          </mxGeometry>
        </mxCell>
        <mxCell id="VDPa8rt16qKgHQVNXyiY-72" style="edgeStyle=orthogonalEdgeStyle;rounded=0;orthogonalLoop=1;jettySize=auto;html=1;entryX=0.794;entryY=1.011;entryDx=0;entryDy=0;entryPerimeter=0;strokeColor=#FF6666;strokeWidth=1;" parent="VDPa8rt16qKgHQVNXyiY-65" source="VDPa8rt16qKgHQVNXyiY-74" target="VDPa8rt16qKgHQVNXyiY-66" edge="1">
          <mxGeometry relative="1" as="geometry">
            <Array as="points">
              <mxPoint x="14.999999999999998" y="134" />
              <mxPoint x="94.99999999999999" y="134" />
            </Array>
          </mxGeometry>
        </mxCell>
        <mxCell id="VDPa8rt16qKgHQVNXyiY-73" style="edgeStyle=orthogonalEdgeStyle;rounded=0;orthogonalLoop=1;jettySize=auto;html=1;entryX=0.881;entryY=1.014;entryDx=0;entryDy=0;entryPerimeter=0;strokeColor=#FF6666;strokeWidth=1;" parent="VDPa8rt16qKgHQVNXyiY-65" source="VDPa8rt16qKgHQVNXyiY-74" target="VDPa8rt16qKgHQVNXyiY-66" edge="1">
          <mxGeometry relative="1" as="geometry">
            <Array as="points">
              <mxPoint x="14.999999999999998" y="134" />
              <mxPoint x="105.99999999999999" y="134" />
            </Array>
          </mxGeometry>
        </mxCell>
        <mxCell id="VDPa8rt16qKgHQVNXyiY-74" value="DT DTH" style="shape=mxgraph.rack.oracle.netra_cp3260_atca_blade_server;html=1;labelPosition=center;align=center;spacingLeft=15;dashed=0;shadow=0;fillColor=#ffffff;horizontal=0;verticalLabelPosition=top;verticalAlign=bottom;" parent="VDPa8rt16qKgHQVNXyiY-65" vertex="1">
          <mxGeometry x="9.999999999999998" y="3.499999999999999" width="9.999999999999998" height="112.99999999999997" as="geometry" />
        </mxCell>
        <mxCell id="VDPa8rt16qKgHQVNXyiY-75" style="edgeStyle=orthogonalEdgeStyle;rounded=0;orthogonalLoop=1;jettySize=auto;html=1;startArrow=classic;startFill=1;endArrow=none;endFill=0;strokeColor=#FF6666;strokeWidth=1;entryX=0.5;entryY=1.001;entryDx=0;entryDy=0;entryPerimeter=0;exitX=0.306;exitY=1.008;exitDx=0;exitDy=0;exitPerimeter=0;" parent="VDPa8rt16qKgHQVNXyiY-65" source="VDPa8rt16qKgHQVNXyiY-66" target="VDPa8rt16qKgHQVNXyiY-74" edge="1">
          <mxGeometry relative="1" as="geometry">
            <mxPoint x="64.99999999999999" y="120.99999999999996" as="sourcePoint" />
            <Array as="points">
              <mxPoint x="36.99999999999999" y="134" />
              <mxPoint x="14.999999999999998" y="134" />
            </Array>
            <mxPoint x="10.999999999999998" y="119.99999999999999" as="targetPoint" />
          </mxGeometry>
        </mxCell>
        <mxCell id="VDPa8rt16qKgHQVNXyiY-76" value="DT BE&lt;br&gt;" style="shape=mxgraph.rack.oracle.netra_cp3260_atca_blade_server;html=1;labelPosition=center;align=center;spacingLeft=15;dashed=0;shadow=0;fillColor=#ffffff;horizontal=0;verticalLabelPosition=top;verticalAlign=bottom;" parent="VDPa8rt16qKgHQVNXyiY-65" vertex="1">
          <mxGeometry x="30.999999999999996" y="3.499999999999999" width="9.999999999999998" height="112.99999999999997" as="geometry" />
        </mxCell>
        <mxCell id="VDPa8rt16qKgHQVNXyiY-77" value="DT BE&lt;br&gt;" style="shape=mxgraph.rack.oracle.netra_cp3260_atca_blade_server;html=1;labelPosition=center;align=center;spacingLeft=15;dashed=0;shadow=0;fillColor=#ffffff;horizontal=0;verticalLabelPosition=top;verticalAlign=bottom;" parent="VDPa8rt16qKgHQVNXyiY-65" vertex="1">
          <mxGeometry x="40.99999999999999" y="3.499999999999999" width="9.999999999999998" height="112.99999999999997" as="geometry" />
        </mxCell>
        <mxCell id="VDPa8rt16qKgHQVNXyiY-78" value="DT BE" style="shape=mxgraph.rack.oracle.netra_cp3260_atca_blade_server;html=1;labelPosition=center;align=center;spacingLeft=15;dashed=0;shadow=0;fillColor=#ffffff;horizontal=0;verticalLabelPosition=top;verticalAlign=bottom;" parent="VDPa8rt16qKgHQVNXyiY-65" vertex="1">
          <mxGeometry x="50.99999999999999" y="3.499999999999999" width="9.999999999999998" height="112.99999999999997" as="geometry" />
        </mxCell>
        <mxCell id="VDPa8rt16qKgHQVNXyiY-79" value="DT BE" style="shape=mxgraph.rack.oracle.netra_cp3260_atca_blade_server;html=1;labelPosition=center;align=center;spacingLeft=15;dashed=0;shadow=0;fillColor=#ffffff;horizontal=0;verticalLabelPosition=top;verticalAlign=bottom;" parent="VDPa8rt16qKgHQVNXyiY-65" vertex="1">
          <mxGeometry x="60.99999999999999" y="3.499999999999999" width="9.999999999999998" height="112.99999999999997" as="geometry" />
        </mxCell>
        <mxCell id="VDPa8rt16qKgHQVNXyiY-80" value="DT BE&lt;br&gt;" style="shape=mxgraph.rack.oracle.netra_cp3260_atca_blade_server;html=1;labelPosition=center;align=center;spacingLeft=15;dashed=0;shadow=0;fillColor=#ffffff;horizontal=0;verticalLabelPosition=top;verticalAlign=bottom;" parent="VDPa8rt16qKgHQVNXyiY-65" vertex="1">
          <mxGeometry x="70.99999999999999" y="3.499999999999999" width="9.999999999999998" height="112.99999999999997" as="geometry" />
        </mxCell>
        <mxCell id="VDPa8rt16qKgHQVNXyiY-81" value="DT BE" style="shape=mxgraph.rack.oracle.netra_cp3260_atca_blade_server;html=1;labelPosition=center;align=center;spacingLeft=15;dashed=0;shadow=0;fillColor=#ffffff;horizontal=0;verticalLabelPosition=top;verticalAlign=bottom;" parent="VDPa8rt16qKgHQVNXyiY-65" vertex="1">
          <mxGeometry x="81" y="3.499999999999999" width="9.999999999999998" height="112.99999999999997" as="geometry" />
        </mxCell>
        <mxCell id="VDPa8rt16qKgHQVNXyiY-82" value="DT BE" style="shape=mxgraph.rack.oracle.netra_cp3260_atca_blade_server;html=1;labelPosition=center;align=center;spacingLeft=15;dashed=0;shadow=0;fillColor=#ffffff;horizontal=0;verticalLabelPosition=top;verticalAlign=bottom;" parent="VDPa8rt16qKgHQVNXyiY-65" vertex="1">
          <mxGeometry x="90.99999999999999" y="3.499999999999999" width="9.999999999999998" height="112.99999999999997" as="geometry" />
        </mxCell>
        <mxCell id="VDPa8rt16qKgHQVNXyiY-83" value="DT BE" style="shape=mxgraph.rack.oracle.netra_cp3260_atca_blade_server;html=1;labelPosition=center;align=center;spacingLeft=15;dashed=0;shadow=0;fillColor=#ffffff;horizontal=0;verticalLabelPosition=top;verticalAlign=bottom;" parent="VDPa8rt16qKgHQVNXyiY-65" vertex="1">
          <mxGeometry x="100.99999999999999" y="3.499999999999999" width="9.999999999999998" height="112.99999999999997" as="geometry" />
        </mxCell>
        <mxCell id="VDPa8rt16qKgHQVNXyiY-84" value="HF Crates" style="text;html=1;strokeColor=none;fillColor=none;align=center;verticalAlign=middle;whiteSpace=wrap;rounded=0;" parent="1" vertex="1">
          <mxGeometry x="1286" y="519" width="40" height="20" as="geometry" />
        </mxCell>
        <mxCell id="VDPa8rt16qKgHQVNXyiY-86" value="DT Crates" style="text;html=1;strokeColor=none;fillColor=none;align=center;verticalAlign=middle;whiteSpace=wrap;rounded=0;" parent="1" vertex="1">
          <mxGeometry x="1465" y="130" width="40" height="20" as="geometry" />
        </mxCell>
        <mxCell id="VDPa8rt16qKgHQVNXyiY-87" style="edgeStyle=orthogonalEdgeStyle;rounded=0;orthogonalLoop=1;jettySize=auto;html=1;entryX=0.5;entryY=0;entryDx=0;entryDy=0;strokeColor=#000099;strokeWidth=2;" parent="1" source="VDPa8rt16qKgHQVNXyiY-76" target="e_Fd-XsdZ4aZpfvhOUSF-62" edge="1">
          <mxGeometry relative="1" as="geometry">
            <Array as="points">
              <mxPoint x="1520" y="170" />
              <mxPoint x="1520" y="100" />
              <mxPoint x="1080" y="100" />
              <mxPoint x="1080" y="230" />
              <mxPoint x="1040" y="230" />
            </Array>
          </mxGeometry>
        </mxCell>
        <mxCell id="VDPa8rt16qKgHQVNXyiY-88" value="DT Lumi Histograms" style="text;html=1;resizable=0;points=[];align=center;verticalAlign=middle;labelBackgroundColor=#ffffff;" parent="VDPa8rt16qKgHQVNXyiY-87" vertex="1" connectable="0">
          <mxGeometry x="-0.0379" y="-2" relative="1" as="geometry">
            <mxPoint x="53" y="12" as="offset" />
          </mxGeometry>
        </mxCell>
        <mxCell id="VDPa8rt16qKgHQVNXyiY-89" style="edgeStyle=orthogonalEdgeStyle;rounded=0;orthogonalLoop=1;jettySize=auto;html=1;strokeColor=#66B2FF;strokeWidth=2;entryX=0.875;entryY=0.5;entryDx=0;entryDy=0;entryPerimeter=0;" parent="1" target="oAu8i6F82wXrjzI7C6l--22" edge="1">
          <mxGeometry relative="1" as="geometry">
            <mxPoint x="1030" y="40" as="targetPoint" />
            <mxPoint x="1346" y="550" as="sourcePoint" />
            <Array as="points">
              <mxPoint x="1270" y="550" />
              <mxPoint x="1270" y="40" />
            </Array>
          </mxGeometry>
        </mxCell>
        <mxCell id="VDPa8rt16qKgHQVNXyiY-90" style="edgeStyle=orthogonalEdgeStyle;rounded=0;orthogonalLoop=1;jettySize=auto;html=1;strokeColor=#66B2FF;strokeWidth=2;entryX=0.875;entryY=0.5;entryDx=0;entryDy=0;entryPerimeter=0;" parent="1" target="oAu8i6F82wXrjzI7C6l--22" edge="1">
          <mxGeometry relative="1" as="geometry">
            <mxPoint x="1050" y="40" as="targetPoint" />
            <mxPoint x="1520" y="160" as="sourcePoint" />
            <Array as="points">
              <mxPoint x="1450" y="160" />
              <mxPoint x="1450" y="40" />
            </Array>
          </mxGeometry>
        </mxCell>
        <mxCell id="VDPa8rt16qKgHQVNXyiY-91" style="edgeStyle=orthogonalEdgeStyle;rounded=0;orthogonalLoop=1;jettySize=auto;html=1;entryX=0.5;entryY=0;entryDx=0;entryDy=0;strokeColor=#808080;strokeWidth=2;" parent="1" source="VDPa8rt16qKgHQVNXyiY-74" target="e_Fd-XsdZ4aZpfvhOUSF-60" edge="1">
          <mxGeometry relative="1" as="geometry">
            <Array as="points">
              <mxPoint x="893" y="200" />
            </Array>
          </mxGeometry>
        </mxCell>
        <mxCell id="VDPa8rt16qKgHQVNXyiY-94" style="edgeStyle=orthogonalEdgeStyle;rounded=0;orthogonalLoop=1;jettySize=auto;html=1;entryX=0;entryY=0.5;entryDx=0;entryDy=0;strokeColor=#000099;strokeWidth=2;" parent="1" source="VDPa8rt16qKgHQVNXyiY-92" target="e_Fd-XsdZ4aZpfvhOUSF-62" edge="1">
          <mxGeometry relative="1" as="geometry" />
        </mxCell>
        <mxCell id="VDPa8rt16qKgHQVNXyiY-92" value="40 MHz Scouting" style="rounded=0;whiteSpace=wrap;html=1;" parent="1" vertex="1">
          <mxGeometry x="945" y="110" width="60" height="50" as="geometry" />
        </mxCell>
        <mxCell id="kvfRWN7beHJI-5MxRQof-1" value="SAL Blade" style="shape=mxgraph.rack.oracle.netra_cp3260_atca_blade_server;html=1;labelPosition=center;align=center;spacingLeft=15;dashed=0;shadow=0;fillColor=#ffffff;horizontal=0;verticalLabelPosition=top;verticalAlign=bottom;" vertex="1" parent="1">
          <mxGeometry x="450" y="484" width="10" height="113" as="geometry" />
        </mxCell>
        <mxCell id="kvfRWN7beHJI-5MxRQof-2" value="" style="rounded=0;whiteSpace=wrap;html=1;fillColor=none;" vertex="1" parent="1">
          <mxGeometry x="2156" y="481" width="120" height="120" as="geometry" />
        </mxCell>
        <mxCell id="kvfRWN7beHJI-5MxRQof-3" value="" style="group" vertex="1" connectable="0" parent="1">
          <mxGeometry x="2480" y="479.5" width="120" height="120" as="geometry" />
        </mxCell>
        <mxCell id="kvfRWN7beHJI-5MxRQof-4" value="" style="rounded=0;whiteSpace=wrap;html=1;fillColor=none;" vertex="1" parent="kvfRWN7beHJI-5MxRQof-3">
          <mxGeometry width="120" height="120" as="geometry" />
        </mxCell>
        <mxCell id="kvfRWN7beHJI-5MxRQof-5" value="&lt;br&gt;DTH" style="shape=mxgraph.rack.oracle.netra_cp3260_atca_blade_server;html=1;labelPosition=center;align=center;spacingLeft=15;dashed=0;shadow=0;fillColor=#ffffff;horizontal=0;verticalLabelPosition=top;verticalAlign=bottom;" vertex="1" parent="kvfRWN7beHJI-5MxRQof-3">
          <mxGeometry x="40" y="3" width="10" height="113" as="geometry" />
        </mxCell>
        <mxCell id="kvfRWN7beHJI-5MxRQof-6" style="edgeStyle=orthogonalEdgeStyle;rounded=0;orthogonalLoop=1;jettySize=auto;html=1;startArrow=classic;startFill=1;endArrow=none;endFill=0;strokeColor=#FF6666;strokeWidth=1;entryX=0.369;entryY=1.004;entryDx=0;entryDy=0;entryPerimeter=0;exitX=0.5;exitY=0.996;exitDx=0;exitDy=0;exitPerimeter=0;" edge="1" parent="kvfRWN7beHJI-5MxRQof-3" target="kvfRWN7beHJI-5MxRQof-4" source="kvfRWN7beHJI-5MxRQof-7">
          <mxGeometry relative="1" as="geometry">
            <mxPoint x="65" y="120.5" as="sourcePoint" />
            <Array as="points">
              <mxPoint x="65" y="134" />
              <mxPoint x="44" y="134" />
            </Array>
          </mxGeometry>
        </mxCell>
        <mxCell id="kvfRWN7beHJI-5MxRQof-7" value="LumiBlade&lt;br&gt;" style="shape=mxgraph.rack.oracle.netra_cp3260_atca_blade_server;html=1;labelPosition=center;align=center;spacingLeft=15;dashed=0;shadow=0;fillColor=#ffffff;horizontal=0;verticalLabelPosition=top;verticalAlign=bottom;" vertex="1" parent="kvfRWN7beHJI-5MxRQof-3">
          <mxGeometry x="60" y="3" width="10" height="113" as="geometry" />
        </mxCell>
        <mxCell id="kvfRWN7beHJI-5MxRQof-8" style="edgeStyle=orthogonalEdgeStyle;rounded=0;orthogonalLoop=1;jettySize=auto;html=1;entryX=0.4;entryY=0.991;entryDx=0;entryDy=0;entryPerimeter=0;startArrow=classic;startFill=1;endArrow=none;endFill=0;strokeColor=#FF6666;strokeWidth=1;exitX=0.475;exitY=0.998;exitDx=0;exitDy=0;exitPerimeter=0;" edge="1" parent="kvfRWN7beHJI-5MxRQof-3" source="kvfRWN7beHJI-5MxRQof-9" target="kvfRWN7beHJI-5MxRQof-5">
          <mxGeometry relative="1" as="geometry">
            <mxPoint x="75" y="119.5" as="sourcePoint" />
            <mxPoint x="44" y="119.25" as="targetPoint" />
            <Array as="points">
              <mxPoint x="75" y="134" />
              <mxPoint x="44" y="134" />
            </Array>
          </mxGeometry>
        </mxCell>
        <mxCell id="kvfRWN7beHJI-5MxRQof-9" value="LumiBlade&lt;br&gt;" style="shape=mxgraph.rack.oracle.netra_cp3260_atca_blade_server;html=1;labelPosition=center;align=center;spacingLeft=15;dashed=0;shadow=0;fillColor=#ffffff;horizontal=0;verticalLabelPosition=top;verticalAlign=bottom;" vertex="1" parent="kvfRWN7beHJI-5MxRQof-3">
          <mxGeometry x="70" y="3" width="10" height="113" as="geometry" />
        </mxCell>
        <mxCell id="kvfRWN7beHJI-5MxRQof-10" value="" style="group" vertex="1" connectable="0" parent="1">
          <mxGeometry x="2320" y="480" width="120" height="120" as="geometry" />
        </mxCell>
        <mxCell id="kvfRWN7beHJI-5MxRQof-11" value="" style="rounded=0;whiteSpace=wrap;html=1;fillColor=none;" vertex="1" parent="kvfRWN7beHJI-5MxRQof-10">
          <mxGeometry width="120" height="120" as="geometry" />
        </mxCell>
        <mxCell id="kvfRWN7beHJI-5MxRQof-12" value="TEPX DTH" style="shape=mxgraph.rack.oracle.netra_cp3260_atca_blade_server;html=1;labelPosition=center;align=center;spacingLeft=15;dashed=0;shadow=0;fillColor=#ffffff;horizontal=0;verticalLabelPosition=top;verticalAlign=bottom;" vertex="1" parent="kvfRWN7beHJI-5MxRQof-10">
          <mxGeometry x="40" y="3" width="10" height="113" as="geometry" />
        </mxCell>
        <mxCell id="kvfRWN7beHJI-5MxRQof-13" style="edgeStyle=orthogonalEdgeStyle;rounded=0;orthogonalLoop=1;jettySize=auto;html=1;entryX=0.381;entryY=1.003;entryDx=0;entryDy=0;entryPerimeter=0;startArrow=classic;startFill=1;endArrow=none;endFill=0;strokeColor=#FF6666;strokeWidth=1;exitX=0.45;exitY=0.991;exitDx=0;exitDy=0;exitPerimeter=0;" edge="1" parent="kvfRWN7beHJI-5MxRQof-10" target="kvfRWN7beHJI-5MxRQof-11" source="kvfRWN7beHJI-5MxRQof-14">
          <mxGeometry relative="1" as="geometry">
            <mxPoint x="65" y="120" as="sourcePoint" />
            <Array as="points">
              <mxPoint x="65" y="133" />
              <mxPoint x="46" y="133" />
            </Array>
          </mxGeometry>
        </mxCell>
        <mxCell id="kvfRWN7beHJI-5MxRQof-14" value="IT DTC" style="shape=mxgraph.rack.oracle.netra_cp3260_atca_blade_server;html=1;labelPosition=center;align=center;spacingLeft=15;dashed=0;shadow=0;fillColor=#ffffff;horizontal=0;verticalLabelPosition=top;verticalAlign=bottom;" vertex="1" parent="kvfRWN7beHJI-5MxRQof-10">
          <mxGeometry x="60" y="3" width="10" height="113" as="geometry" />
        </mxCell>
        <mxCell id="kvfRWN7beHJI-5MxRQof-15" style="edgeStyle=orthogonalEdgeStyle;rounded=0;orthogonalLoop=1;jettySize=auto;html=1;entryX=0.575;entryY=1;entryDx=0;entryDy=0;entryPerimeter=0;startArrow=classic;startFill=1;endArrow=none;endFill=0;strokeColor=#FF6666;strokeWidth=1;exitX=0.55;exitY=1;exitDx=0;exitDy=0;exitPerimeter=0;" edge="1" parent="kvfRWN7beHJI-5MxRQof-10" target="kvfRWN7beHJI-5MxRQof-12" source="kvfRWN7beHJI-5MxRQof-16">
          <mxGeometry relative="1" as="geometry">
            <mxPoint x="76" y="120" as="sourcePoint" />
            <Array as="points">
              <mxPoint x="76" y="133" />
              <mxPoint x="46" y="133" />
            </Array>
          </mxGeometry>
        </mxCell>
        <mxCell id="kvfRWN7beHJI-5MxRQof-16" value="IT DTC" style="shape=mxgraph.rack.oracle.netra_cp3260_atca_blade_server;html=1;labelPosition=center;align=center;spacingLeft=15;dashed=0;shadow=0;fillColor=#ffffff;horizontal=0;verticalLabelPosition=top;verticalAlign=bottom;" vertex="1" parent="kvfRWN7beHJI-5MxRQof-10">
          <mxGeometry x="70" y="3" width="10" height="113" as="geometry" />
        </mxCell>
        <mxCell id="kvfRWN7beHJI-5MxRQof-17" value="LHC bunch &amp;amp; orbit CLK" style="edgeStyle=orthogonalEdgeStyle;rounded=0;orthogonalLoop=1;jettySize=auto;html=1;entryX=0;entryY=0.5;entryDx=0;entryDy=0;entryPerimeter=0;strokeWidth=2;strokeColor=#FFCC99;labelPosition=center;verticalLabelPosition=top;align=center;verticalAlign=bottom;" edge="1" parent="1" source="kvfRWN7beHJI-5MxRQof-19" target="kvfRWN7beHJI-5MxRQof-20">
          <mxGeometry relative="1" as="geometry">
            <Array as="points">
              <mxPoint x="2162" y="155" />
            </Array>
          </mxGeometry>
        </mxCell>
        <mxCell id="kvfRWN7beHJI-5MxRQof-18" style="edgeStyle=orthogonalEdgeStyle;rounded=0;orthogonalLoop=1;jettySize=auto;html=1;entryX=0;entryY=0.25;entryDx=0;entryDy=0;startArrow=none;startFill=0;endArrow=classic;endFill=1;strokeWidth=2;strokeColor=#FFCC99;" edge="1" parent="1" source="kvfRWN7beHJI-5MxRQof-19">
          <mxGeometry relative="1" as="geometry">
            <Array as="points">
              <mxPoint x="1990" y="320" />
              <mxPoint x="1910" y="320" />
              <mxPoint x="1910" y="455" />
            </Array>
            <mxPoint x="1930" y="455" as="targetPoint" />
          </mxGeometry>
        </mxCell>
        <mxCell id="kvfRWN7beHJI-5MxRQof-19" value="Machine Interface Crate" style="rounded=0;whiteSpace=wrap;html=1;shadow=0;dashed=0;fontFamily=Helvetica;fontSize=12;fontColor=#000000;align=center;strokeColor=#000000;fillColor=#ffffff;" vertex="1" parent="1">
          <mxGeometry x="1935" y="100" width="110" height="110" as="geometry" />
        </mxCell>
        <mxCell id="kvfRWN7beHJI-5MxRQof-20" value="TCDS Master (super DTH)" style="rounded=0;whiteSpace=wrap;html=1;shadow=0;dashed=0;fontFamily=Helvetica;fontSize=12;fontColor=#000000;align=center;strokeColor=#6c8ebf;fillColor=none;labelPosition=center;verticalLabelPosition=top;verticalAlign=bottom;" vertex="1" parent="1">
          <mxGeometry x="2280" y="94" width="110" height="120" as="geometry" />
        </mxCell>
        <mxCell id="kvfRWN7beHJI-5MxRQof-21" style="edgeStyle=orthogonalEdgeStyle;rounded=0;orthogonalLoop=1;jettySize=auto;html=1;entryX=0.973;entryY=0.518;entryDx=0;entryDy=0;entryPerimeter=0;startArrow=classic;startFill=1;strokeWidth=2;strokeColor=#FFD966;" edge="1" parent="1" source="kvfRWN7beHJI-5MxRQof-23" target="kvfRWN7beHJI-5MxRQof-20">
          <mxGeometry relative="1" as="geometry">
            <Array as="points">
              <mxPoint x="2560" y="156" />
              <mxPoint x="2560" y="156" />
            </Array>
          </mxGeometry>
        </mxCell>
        <mxCell id="kvfRWN7beHJI-5MxRQof-22" value="L1 TRG" style="text;html=1;resizable=0;points=[];align=center;verticalAlign=bottom;labelBackgroundColor=#ffffff;labelPosition=center;verticalLabelPosition=top;" vertex="1" connectable="0" parent="kvfRWN7beHJI-5MxRQof-21">
          <mxGeometry x="0.0301" y="1" relative="1" as="geometry">
            <mxPoint x="4" y="-4.5" as="offset" />
          </mxGeometry>
        </mxCell>
        <mxCell id="kvfRWN7beHJI-5MxRQof-23" value="GT processor" style="shape=mxgraph.rack.oracle.netra_cp3260_atca_blade_server;html=1;labelPosition=right;align=left;spacingLeft=15;dashed=0;shadow=0;fillColor=#ffffff;" vertex="1" parent="1">
          <mxGeometry x="2611" y="100" width="10" height="113" as="geometry" />
        </mxCell>
        <mxCell id="kvfRWN7beHJI-5MxRQof-24" value="&lt;font style=&quot;font-size: 13px&quot;&gt;Lumi TRG&amp;nbsp;&lt;/font&gt;" style="edgeStyle=orthogonalEdgeStyle;rounded=0;orthogonalLoop=1;jettySize=auto;html=1;exitX=1;exitY=0.25;exitDx=0;exitDy=0;entryX=0;entryY=0.618;entryDx=0;entryDy=0;entryPerimeter=0;startArrow=classic;startFill=1;strokeWidth=2;strokeColor=#FF0080;horizontal=0;labelPosition=center;verticalLabelPosition=top;align=center;verticalAlign=bottom;" edge="1" parent="1" source="kvfRWN7beHJI-5MxRQof-25" target="kvfRWN7beHJI-5MxRQof-20">
          <mxGeometry x="-0.0237" y="5" relative="1" as="geometry">
            <Array as="points">
              <mxPoint x="2165" y="445" />
              <mxPoint x="2165" y="168" />
            </Array>
            <mxPoint as="offset" />
          </mxGeometry>
        </mxCell>
        <mxCell id="kvfRWN7beHJI-5MxRQof-25" value="&quot;GT-like&quot; &amp;nbsp;lumi Trigger card&amp;nbsp;" style="rounded=1;whiteSpace=wrap;html=1;fillColor=none;" vertex="1" parent="1">
          <mxGeometry x="1930" y="420" width="120" height="100" as="geometry" />
        </mxCell>
        <mxCell id="kvfRWN7beHJI-5MxRQof-26" style="edgeStyle=orthogonalEdgeStyle;rounded=0;orthogonalLoop=1;jettySize=auto;html=1;entryX=1.008;entryY=0.73;entryDx=0;entryDy=0;startArrow=classic;startFill=1;endArrow=none;endFill=0;strokeWidth=3;strokeColor=#4D9900;entryPerimeter=0;" edge="1" parent="1" source="kvfRWN7beHJI-5MxRQof-32" target="kvfRWN7beHJI-5MxRQof-25">
          <mxGeometry relative="1" as="geometry">
            <mxPoint x="2050" y="470" as="targetPoint" />
            <Array as="points">
              <mxPoint x="2080" y="541" />
              <mxPoint x="2080" y="493" />
            </Array>
          </mxGeometry>
        </mxCell>
        <mxCell id="kvfRWN7beHJI-5MxRQof-27" value="D4R1 Lumi &amp;amp; BKG TRG" style="text;html=1;resizable=0;points=[];align=center;verticalAlign=middle;labelBackgroundColor=#ffffff;horizontal=1;" vertex="1" connectable="0" parent="kvfRWN7beHJI-5MxRQof-26">
          <mxGeometry x="0.3757" y="1" relative="1" as="geometry">
            <mxPoint x="1" y="51" as="offset" />
          </mxGeometry>
        </mxCell>
        <mxCell id="kvfRWN7beHJI-5MxRQof-73" value="&quot;TCDS-like&quot; control stream" style="text;html=1;align=center;verticalAlign=middle;resizable=0;points=[];labelBackgroundColor=#ffffff;" vertex="1" connectable="0" parent="kvfRWN7beHJI-5MxRQof-26">
          <mxGeometry x="-0.0624" relative="1" as="geometry">
            <mxPoint x="-17" y="9" as="offset" />
          </mxGeometry>
        </mxCell>
        <mxCell id="kvfRWN7beHJI-5MxRQof-28" style="edgeStyle=orthogonalEdgeStyle;rounded=0;orthogonalLoop=1;jettySize=auto;html=1;entryX=-0.009;entryY=0.755;entryDx=0;entryDy=0;entryPerimeter=0;startArrow=classic;startFill=1;endArrow=none;endFill=0;strokeColor=#FF6666;strokeWidth=3;exitX=1;exitY=0.5;exitDx=0;exitDy=0;" edge="1" parent="1" source="kvfRWN7beHJI-5MxRQof-25" target="kvfRWN7beHJI-5MxRQof-20">
          <mxGeometry relative="1" as="geometry">
            <Array as="points">
              <mxPoint x="2212" y="470" />
              <mxPoint x="2212" y="185" />
            </Array>
            <mxPoint x="2050" y="455" as="sourcePoint" />
          </mxGeometry>
        </mxCell>
        <mxCell id="kvfRWN7beHJI-5MxRQof-29" value="TCDS 2 for NB, LS" style="text;html=1;resizable=0;points=[];align=center;verticalAlign=middle;labelBackgroundColor=#ffffff;horizontal=0;" vertex="1" connectable="0" parent="kvfRWN7beHJI-5MxRQof-28">
          <mxGeometry x="-0.0165" y="1" relative="1" as="geometry">
            <mxPoint x="14.5" y="-2.5" as="offset" />
          </mxGeometry>
        </mxCell>
        <mxCell id="kvfRWN7beHJI-5MxRQof-30" style="edgeStyle=orthogonalEdgeStyle;rounded=0;orthogonalLoop=1;jettySize=auto;html=1;entryX=0;entryY=0.5;entryDx=0;entryDy=0;strokeColor=#808080;strokeWidth=2;" edge="1" parent="1" source="kvfRWN7beHJI-5MxRQof-32" target="kvfRWN7beHJI-5MxRQof-56">
          <mxGeometry relative="1" as="geometry">
            <Array as="points">
              <mxPoint x="2170" y="540" />
              <mxPoint x="2170" y="746" />
            </Array>
          </mxGeometry>
        </mxCell>
        <mxCell id="kvfRWN7beHJI-5MxRQof-31" value="D4R1 Calibration Data" style="text;html=1;resizable=0;points=[];align=center;verticalAlign=middle;labelBackgroundColor=#ffffff;" vertex="1" connectable="0" parent="kvfRWN7beHJI-5MxRQof-30">
          <mxGeometry x="0.2469" relative="1" as="geometry">
            <mxPoint x="-10" y="52" as="offset" />
          </mxGeometry>
        </mxCell>
        <mxCell id="kvfRWN7beHJI-5MxRQof-72" style="edgeStyle=orthogonalEdgeStyle;rounded=0;orthogonalLoop=1;jettySize=auto;html=1;entryX=0.575;entryY=1;entryDx=0;entryDy=0;entryPerimeter=0;startArrow=none;startFill=0;strokeColor=#FF33FF;strokeWidth=1;" edge="1" parent="1" target="kvfRWN7beHJI-5MxRQof-66">
          <mxGeometry relative="1" as="geometry">
            <mxPoint x="2185" y="597" as="sourcePoint" />
            <Array as="points">
              <mxPoint x="2185" y="610" />
              <mxPoint x="2256" y="610" />
            </Array>
          </mxGeometry>
        </mxCell>
        <mxCell id="kvfRWN7beHJI-5MxRQof-32" value="D4R1 DTH" style="shape=mxgraph.rack.oracle.netra_cp3260_atca_blade_server;html=1;labelPosition=center;align=center;spacingLeft=15;dashed=0;shadow=0;fillColor=#ffffff;horizontal=0;verticalLabelPosition=top;verticalAlign=bottom;" vertex="1" parent="1">
          <mxGeometry x="2180" y="483.5" width="10" height="113" as="geometry" />
        </mxCell>
        <mxCell id="kvfRWN7beHJI-5MxRQof-75" style="edgeStyle=orthogonalEdgeStyle;rounded=0;orthogonalLoop=1;jettySize=auto;html=1;startArrow=none;startFill=0;strokeColor=#FF99FF;strokeWidth=2;" edge="1" parent="1" source="kvfRWN7beHJI-5MxRQof-33" target="kvfRWN7beHJI-5MxRQof-37">
          <mxGeometry relative="1" as="geometry" />
        </mxCell>
        <mxCell id="kvfRWN7beHJI-5MxRQof-33" value="D4R1 DTC" style="shape=mxgraph.rack.oracle.netra_cp3260_atca_blade_server;html=1;labelPosition=center;align=center;spacingLeft=15;dashed=0;shadow=0;fillColor=#ffffff;horizontal=0;verticalLabelPosition=top;verticalAlign=bottom;" vertex="1" parent="1">
          <mxGeometry x="2200" y="484" width="10" height="113" as="geometry" />
        </mxCell>
        <mxCell id="kvfRWN7beHJI-5MxRQof-34" style="edgeStyle=orthogonalEdgeStyle;rounded=0;orthogonalLoop=1;jettySize=auto;html=1;startArrow=classic;startFill=1;endArrow=none;endFill=0;strokeColor=#FF33FF;strokeWidth=1;entryX=0.45;entryY=0.996;entryDx=0;entryDy=0;entryPerimeter=0;" edge="1" parent="1" target="kvfRWN7beHJI-5MxRQof-32">
          <mxGeometry relative="1" as="geometry">
            <mxPoint x="2196" y="611" as="targetPoint" />
            <Array as="points">
              <mxPoint x="2230" y="611" />
              <mxPoint x="2185" y="611" />
            </Array>
            <mxPoint x="2230" y="597" as="sourcePoint" />
          </mxGeometry>
        </mxCell>
        <mxCell id="kvfRWN7beHJI-5MxRQof-37" value="D4R1 LumiBlade" style="shape=mxgraph.rack.oracle.netra_cp3260_atca_blade_server;html=1;labelPosition=center;align=center;spacingLeft=15;dashed=0;shadow=0;fillColor=#ffffff;horizontal=0;verticalLabelPosition=top;verticalAlign=bottom;" vertex="1" parent="1">
          <mxGeometry x="2225" y="484" width="10" height="113" as="geometry" />
        </mxCell>
        <mxCell id="kvfRWN7beHJI-5MxRQof-38" value="TCDS 2 incl. Lumi TRG" style="edgeStyle=orthogonalEdgeStyle;rounded=0;orthogonalLoop=1;jettySize=auto;html=1;startArrow=classic;startFill=1;endArrow=none;endFill=0;strokeColor=#FF6666;strokeWidth=3;exitX=0.358;exitY=0.017;exitDx=0;exitDy=0;exitPerimeter=0;horizontal=0;" edge="1" parent="1" source="kvfRWN7beHJI-5MxRQof-11">
          <mxGeometry x="0.3696" y="-10" relative="1" as="geometry">
            <mxPoint x="2548" y="478" as="sourcePoint" />
            <mxPoint x="2391" y="190" as="targetPoint" />
            <Array as="points">
              <mxPoint x="2363" y="430" />
              <mxPoint x="2420" y="430" />
              <mxPoint x="2420" y="190" />
            </Array>
            <mxPoint as="offset" />
          </mxGeometry>
        </mxCell>
        <mxCell id="kvfRWN7beHJI-5MxRQof-39" style="edgeStyle=orthogonalEdgeStyle;rounded=0;orthogonalLoop=1;jettySize=auto;html=1;entryX=1;entryY=0.618;entryDx=0;entryDy=0;entryPerimeter=0;startArrow=classic;startFill=1;endArrow=none;endFill=0;strokeColor=#FF6666;strokeWidth=3;exitX=0.6;exitY=-0.004;exitDx=0;exitDy=0;exitPerimeter=0;" edge="1" parent="1" source="kvfRWN7beHJI-5MxRQof-5" target="kvfRWN7beHJI-5MxRQof-20">
          <mxGeometry relative="1" as="geometry">
            <Array as="points">
              <mxPoint x="2526" y="410" />
              <mxPoint x="2490" y="410" />
              <mxPoint x="2490" y="168" />
            </Array>
          </mxGeometry>
        </mxCell>
        <mxCell id="kvfRWN7beHJI-5MxRQof-40" value="&lt;font style=&quot;font-size: 11px&quot;&gt;TCDS 2 incl. Lumi TRG&lt;/font&gt;" style="text;html=1;resizable=0;points=[];align=center;verticalAlign=middle;labelBackgroundColor=#ffffff;rotation=270;" vertex="1" connectable="0" parent="kvfRWN7beHJI-5MxRQof-39">
          <mxGeometry x="0.04" y="2" relative="1" as="geometry">
            <mxPoint x="12" y="-4" as="offset" />
          </mxGeometry>
        </mxCell>
        <mxCell id="kvfRWN7beHJI-5MxRQof-41" value="super DTH" style="shape=mxgraph.rack.oracle.netra_cp3260_atca_blade_server;html=1;labelPosition=center;align=center;spacingLeft=15;dashed=0;shadow=0;fillColor=#ffffff;verticalLabelPosition=top;verticalAlign=bottom;horizontal=0;" vertex="1" parent="1">
          <mxGeometry x="2290" y="97" width="10" height="113" as="geometry" />
        </mxCell>
        <mxCell id="kvfRWN7beHJI-5MxRQof-42" value="super DTH" style="shape=mxgraph.rack.oracle.netra_cp3260_atca_blade_server;html=1;labelPosition=center;align=center;spacingLeft=15;dashed=0;shadow=0;fillColor=#ffffff;verticalLabelPosition=top;verticalAlign=bottom;horizontal=0;" vertex="1" parent="1">
          <mxGeometry x="2300" y="97" width="10" height="113" as="geometry" />
        </mxCell>
        <mxCell id="kvfRWN7beHJI-5MxRQof-43" value="super DTH" style="shape=mxgraph.rack.oracle.netra_cp3260_atca_blade_server;html=1;labelPosition=center;align=center;spacingLeft=15;dashed=0;shadow=0;fillColor=#ffffff;verticalLabelPosition=top;verticalAlign=bottom;horizontal=0;" vertex="1" parent="1">
          <mxGeometry x="2310" y="97" width="10" height="113" as="geometry" />
        </mxCell>
        <mxCell id="kvfRWN7beHJI-5MxRQof-44" value="super DTH" style="shape=mxgraph.rack.oracle.netra_cp3260_atca_blade_server;html=1;labelPosition=center;align=center;spacingLeft=15;dashed=0;shadow=0;fillColor=#ffffff;verticalLabelPosition=top;verticalAlign=bottom;horizontal=0;" vertex="1" parent="1">
          <mxGeometry x="2320" y="97" width="10" height="113" as="geometry" />
        </mxCell>
        <mxCell id="kvfRWN7beHJI-5MxRQof-45" value="super DTH" style="shape=mxgraph.rack.oracle.netra_cp3260_atca_blade_server;html=1;labelPosition=center;align=center;spacingLeft=15;dashed=0;shadow=0;fillColor=#ffffff;verticalLabelPosition=top;verticalAlign=bottom;horizontal=0;" vertex="1" parent="1">
          <mxGeometry x="2330" y="97" width="10" height="113" as="geometry" />
        </mxCell>
        <mxCell id="kvfRWN7beHJI-5MxRQof-46" value="super DTH" style="shape=mxgraph.rack.oracle.netra_cp3260_atca_blade_server;html=1;labelPosition=center;align=center;spacingLeft=15;dashed=0;shadow=0;fillColor=#ffffff;verticalLabelPosition=top;verticalAlign=bottom;horizontal=0;" vertex="1" parent="1">
          <mxGeometry x="2340" y="97" width="10" height="113" as="geometry" />
        </mxCell>
        <mxCell id="kvfRWN7beHJI-5MxRQof-47" value="super DTH" style="shape=mxgraph.rack.oracle.netra_cp3260_atca_blade_server;html=1;labelPosition=center;align=center;spacingLeft=15;dashed=0;shadow=0;fillColor=#ffffff;verticalLabelPosition=top;verticalAlign=bottom;horizontal=0;" vertex="1" parent="1">
          <mxGeometry x="2350" y="97" width="10" height="113" as="geometry" />
        </mxCell>
        <mxCell id="kvfRWN7beHJI-5MxRQof-48" value="super DTH" style="shape=mxgraph.rack.oracle.netra_cp3260_atca_blade_server;html=1;labelPosition=center;align=center;spacingLeft=15;dashed=0;shadow=0;fillColor=#ffffff;verticalLabelPosition=top;verticalAlign=bottom;horizontal=0;" vertex="1" parent="1">
          <mxGeometry x="2360" y="97" width="10" height="113" as="geometry" />
        </mxCell>
        <mxCell id="kvfRWN7beHJI-5MxRQof-49" value="super DTH" style="shape=mxgraph.rack.oracle.netra_cp3260_atca_blade_server;html=1;labelPosition=center;align=center;spacingLeft=15;dashed=0;shadow=0;fillColor=#ffffff;verticalLabelPosition=top;verticalAlign=bottom;horizontal=0;" vertex="1" parent="1">
          <mxGeometry x="2370" y="97" width="10" height="113" as="geometry" />
        </mxCell>
        <mxCell id="kvfRWN7beHJI-5MxRQof-50" style="edgeStyle=orthogonalEdgeStyle;rounded=0;orthogonalLoop=1;jettySize=auto;html=1;exitX=0.5;exitY=1;exitDx=0;exitDy=0;entryX=0;entryY=0.75;entryDx=0;entryDy=0;startArrow=none;startFill=0;endArrow=classic;endFill=1;strokeColor=#66B2FF;strokeWidth=2;" edge="1" parent="1" source="kvfRWN7beHJI-5MxRQof-52">
          <mxGeometry relative="1" as="geometry">
            <Array as="points">
              <mxPoint x="1860" y="485" />
            </Array>
            <mxPoint x="1930" y="485" as="targetPoint" />
          </mxGeometry>
        </mxCell>
        <mxCell id="kvfRWN7beHJI-5MxRQof-51" style="edgeStyle=orthogonalEdgeStyle;rounded=0;orthogonalLoop=1;jettySize=auto;html=1;entryX=0.6;entryY=-0.035;entryDx=0;entryDy=0;entryPerimeter=0;strokeWidth=2;strokeColor=#3399FF;" edge="1" parent="1" source="kvfRWN7beHJI-5MxRQof-52" target="kvfRWN7beHJI-5MxRQof-23">
          <mxGeometry relative="1" as="geometry" />
        </mxCell>
        <mxCell id="kvfRWN7beHJI-5MxRQof-52" value="BPTX" style="rounded=1;whiteSpace=wrap;html=1;fillColor=none;" vertex="1" parent="1">
          <mxGeometry x="1800" y="24" width="120" height="60" as="geometry" />
        </mxCell>
        <mxCell id="kvfRWN7beHJI-5MxRQof-53" style="edgeStyle=orthogonalEdgeStyle;rounded=0;orthogonalLoop=1;jettySize=auto;html=1;entryX=0.642;entryY=0.004;entryDx=0;entryDy=0;entryPerimeter=0;startArrow=none;startFill=0;endArrow=classic;endFill=1;strokeColor=#FF99FF;strokeWidth=2;" edge="1" parent="1" source="kvfRWN7beHJI-5MxRQof-14" target="kvfRWN7beHJI-5MxRQof-4">
          <mxGeometry relative="1" as="geometry">
            <Array as="points">
              <mxPoint x="2460" y="537" />
              <mxPoint x="2460" y="460" />
              <mxPoint x="2557" y="460" />
            </Array>
          </mxGeometry>
        </mxCell>
        <mxCell id="kvfRWN7beHJI-5MxRQof-54" value="TEPX Raw Lumi Data" style="text;html=1;resizable=0;points=[];align=center;verticalAlign=middle;labelBackgroundColor=#ffffff;direction=west;" vertex="1" connectable="0" parent="kvfRWN7beHJI-5MxRQof-53">
          <mxGeometry x="0.1906" y="1" relative="1" as="geometry">
            <mxPoint x="-10" y="-16" as="offset" />
          </mxGeometry>
        </mxCell>
        <mxCell id="kvfRWN7beHJI-5MxRQof-56" value="D4R1 miniDAQ" style="ellipse;whiteSpace=wrap;html=1;fillColor=none;" vertex="1" parent="1">
          <mxGeometry x="2280" y="706" width="120" height="80" as="geometry" />
        </mxCell>
        <mxCell id="kvfRWN7beHJI-5MxRQof-57" value="" style="group" vertex="1" connectable="0" parent="1">
          <mxGeometry x="1910" y="678" width="210" height="56" as="geometry" />
        </mxCell>
        <mxCell id="kvfRWN7beHJI-5MxRQof-58" value="" style="rounded=0;whiteSpace=wrap;html=1;" vertex="1" parent="kvfRWN7beHJI-5MxRQof-57">
          <mxGeometry x="-10" y="-4" width="220" height="44" as="geometry" />
        </mxCell>
        <mxCell id="kvfRWN7beHJI-5MxRQof-59" value="" style="endArrow=classic;html=1;strokeColor=#97D077;strokeWidth=1;endFill=1;" edge="1" parent="kvfRWN7beHJI-5MxRQof-57">
          <mxGeometry width="50" height="50" relative="1" as="geometry">
            <mxPoint y="10" as="sourcePoint" />
            <mxPoint x="60" y="10" as="targetPoint" />
          </mxGeometry>
        </mxCell>
        <mxCell id="kvfRWN7beHJI-5MxRQof-60" value="" style="endArrow=classic;html=1;strokeColor=#FF6666;strokeWidth=1;endFill=1;" edge="1" parent="kvfRWN7beHJI-5MxRQof-57">
          <mxGeometry width="50" height="50" relative="1" as="geometry">
            <mxPoint y="26" as="sourcePoint" />
            <mxPoint x="60" y="26" as="targetPoint" />
          </mxGeometry>
        </mxCell>
        <mxCell id="kvfRWN7beHJI-5MxRQof-61" value="D4R1 TCDS-like stream" style="text;html=1;strokeColor=none;fillColor=none;align=center;verticalAlign=middle;whiteSpace=wrap;rounded=0;" vertex="1" parent="kvfRWN7beHJI-5MxRQof-57">
          <mxGeometry x="65" width="135" height="20" as="geometry" />
        </mxCell>
        <mxCell id="kvfRWN7beHJI-5MxRQof-62" value="TCDS" style="text;html=1;strokeColor=none;fillColor=none;align=center;verticalAlign=middle;whiteSpace=wrap;rounded=0;" vertex="1" parent="kvfRWN7beHJI-5MxRQof-57">
          <mxGeometry x="68" y="16" width="135" height="20" as="geometry" />
        </mxCell>
        <mxCell id="kvfRWN7beHJI-5MxRQof-63" value="DTH to DTC links" style="text;html=1;strokeColor=none;fillColor=none;align=center;verticalAlign=middle;whiteSpace=wrap;rounded=0;" vertex="1" parent="1">
          <mxGeometry x="2490" y="696" width="100" height="20" as="geometry" />
        </mxCell>
        <mxCell id="kvfRWN7beHJI-5MxRQof-66" value="SAL Blade" style="shape=mxgraph.rack.oracle.netra_cp3260_atca_blade_server;html=1;labelPosition=center;align=center;spacingLeft=15;dashed=0;shadow=0;fillColor=#ffffff;horizontal=0;verticalLabelPosition=top;verticalAlign=bottom;" vertex="1" parent="1">
          <mxGeometry x="2250" y="484" width="10" height="113" as="geometry" />
        </mxCell>
        <mxCell id="kvfRWN7beHJI-5MxRQof-68" style="edgeStyle=orthogonalEdgeStyle;rounded=0;orthogonalLoop=1;jettySize=auto;html=1;startArrow=classic;startFill=1;endArrow=none;endFill=0;strokeColor=#FF33FF;strokeWidth=1;entryX=0.425;entryY=0.998;entryDx=0;entryDy=0;entryPerimeter=0;exitX=0.475;exitY=0.991;exitDx=0;exitDy=0;exitPerimeter=0;" edge="1" parent="1" source="kvfRWN7beHJI-5MxRQof-33" target="kvfRWN7beHJI-5MxRQof-32">
          <mxGeometry relative="1" as="geometry">
            <mxPoint x="2162.22" y="596.498" as="targetPoint" />
            <Array as="points">
              <mxPoint x="2205" y="611" />
              <mxPoint x="2184" y="611" />
            </Array>
            <mxPoint x="2207.72" y="597.45" as="sourcePoint" />
          </mxGeometry>
        </mxCell>
        <mxCell id="kvfRWN7beHJI-5MxRQof-74" style="edgeStyle=orthogonalEdgeStyle;rounded=0;orthogonalLoop=1;jettySize=auto;html=1;exitX=1;exitY=0.5;exitDx=0;exitDy=0;entryX=1;entryY=0.75;entryDx=0;entryDy=0;startArrow=none;startFill=0;strokeColor=#FFB570;strokeWidth=2;" edge="1" parent="1" source="kvfRWN7beHJI-5MxRQof-25" target="kvfRWN7beHJI-5MxRQof-25">
          <mxGeometry relative="1" as="geometry">
            <Array as="points">
              <mxPoint x="2020" y="470" />
              <mxPoint x="2020" y="495" />
            </Array>
          </mxGeometry>
        </mxCell>
      </root>
    </mxGraphModel>
  </diagram>
</mxfile>
